{
  "accessors": [
    {
      "name": "bungalow_2_TypeB_1_0_positions",
      "componentType": 5126,
      "count": 1242,
      "min": [
        -11.374720573425293,
        0,
        -7.821100234985352
      ],
      "max": [
        11.374720573425293,
        13.100000381469727,
        8.628899574279785
      ],
      "type": "VEC3",
      "bufferView": 0,
      "byteOffset": 0
    },
    {
      "name": "bungalow_2_TypeB_1_0_indices",
      "componentType": 5123,
      "count": 4956,
      "min": [
        0
      ],
      "max": [
        1241
      ],
      "type": "SCALAR",
      "bufferView": 1,
      "byteOffset": 0
    },
    {
      "name": "bungalow_2_TypeB_1_1_positions",
      "componentType": 5126,
      "count": 48,
      "min": [
        -8.33798885345459,
        0.7296010255813599,
        -3.221100091934204
      ],
      "max": [
        5.085431098937988,
        5.9000020027160645,
        1.4805999994277954
      ],
      "type": "VEC3",
      "bufferView": 0,
      "byteOffset": 14904
    },
    {
      "name": "bungalow_2_TypeB_1_1_indices",
      "componentType": 5123,
      "count": 216,
      "min": [
        0
      ],
      "max": [
        47
      ],
      "type": "SCALAR",
      "bufferView": 1,
      "byteOffset": 9912
    },
    {
      "name": "bungalow_2_TypeB_1_2_positions",
      "componentType": 5126,
      "count": 54,
      "min": [
        -8.453378677368164,
        0,
        -8.628899574279785
      ],
      "max": [
        10.391912460327148,
        0.30000001192092896,
        1.8543599843978882
      ],
      "type": "VEC3",
      "bufferView": 0,
      "byteOffset": 15480
    },
    {
      "name": "bungalow_2_TypeB_1_2_indices",
      "componentType": 5123,
      "count": 192,
      "min": [
        0
      ],
      "max": [
        53
      ],
      "type": "SCALAR",
      "bufferView": 1,
      "byteOffset": 10344
    },
    {
      "name": "bungalow_2_TypeB_1_3_positions",
      "componentType": 5126,
      "count": 684,
      "min": [
        -10.624719619750977,
        0,
        -6.7254228591918945
      ],
      "max": [
        10.541911125183105,
        12.800000190734863,
        7.628900051116943
      ],
      "type": "VEC3",
      "bufferView": 0,
      "byteOffset": 16128
    },
    {
      "name": "bungalow_2_TypeB_1_3_indices",
      "componentType": 5123,
      "count": 1944,
      "min": [
        0
      ],
      "max": [
        683
      ],
      "type": "SCALAR",
      "bufferView": 1,
      "byteOffset": 10728
    },
    {
      "name": "bungalow_2_TypeB_1_4_positions",
      "componentType": 5126,
      "count": 180,
      "min": [
        -7.467450141906738,
        0.15000000596046448,
        -6.755423069000244
      ],
      "max": [
        10.541911125183105,
        11.750001907348633,
        7.5777997970581055
      ],
      "type": "VEC3",
      "bufferView": 0,
      "byteOffset": 24336
    },
    {
      "name": "bungalow_2_TypeB_1_4_indices",
      "componentType": 5123,
      "count": 276,
      "min": [
        0
      ],
      "max": [
        179
      ],
      "type": "SCALAR",
      "bufferView": 1,
      "byteOffset": 14616
    },
    {
      "name": "bungalow_2_TypeB_1_5_positions",
      "componentType": 5126,
      "count": 18,
      "min": [
        7.79771089553833,
        7.599999904632568,
        5.018899917602539
      ],
      "max": [
        10.541911125183105,
        9.75,
        7.5777997970581055
      ],
      "type": "VEC3",
      "bufferView": 0,
      "byteOffset": 26496
    },
    {
      "name": "bungalow_2_TypeB_1_5_indices",
      "componentType": 5123,
      "count": 36,
      "min": [
        0
      ],
      "max": [
        17
      ],
      "type": "SCALAR",
      "bufferView": 1,
      "byteOffset": 15168
    },
    {
      "name": "bungalow_2_TypeB_1_6_positions",
      "componentType": 5126,
      "count": 12,
      "min": [
        -5.75251579284668,
        0.15839999914169312,
        -0.6579700112342834
      ],
      "max": [
        7.94871187210083,
        2.868004083633423,
        6.0914998054504395
      ],
      "type": "VEC3",
      "bufferView": 0,
      "byteOffset": 26712
    },
    {
      "name": "bungalow_2_TypeB_1_6_indices",
      "componentType": 5123,
      "count": 18,
      "min": [
        0
      ],
      "max": [
        11
      ],
      "type": "SCALAR",
      "bufferView": 1,
      "byteOffset": 15240
    },
    {
      "name": "bungalow_2_TypeB_1_7_positions",
      "componentType": 5126,
      "count": 6,
      "min": [
        1.9590109586715698,
        0.20000000298023224,
        -8.479047775268555
      ],
      "max": [
        10.241768836975098,
        0.20000000298023224,
        -2.2711000442504883
      ],
      "type": "VEC3",
      "bufferView": 0,
      "byteOffset": 26856
    },
    {
      "name": "bungalow_2_TypeB_1_7_indices",
      "componentType": 5123,
      "count": 12,
      "min": [
        0
      ],
      "max": [
        5
      ],
      "type": "SCALAR",
      "bufferView": 1,
      "byteOffset": 15276
    },
    {
      "name": "bungalow_2_TypeB_1_8_positions",
      "componentType": 5126,
      "count": 8,
      "min": [
        -12.569470405578613,
        -2.200000047683716,
        -9.380640029907227
      ],
      "max": [
        13.245770454406738,
        0,
        10.076000213623047
      ],
      "type": "VEC3",
      "bufferView": 0,
      "byteOffset": 26928
    },
    {
      "name": "bungalow_2_TypeB_1_8_indices",
      "componentType": 5123,
      "count": 36,
      "min": [
        0
      ],
      "max": [
        7
      ],
      "type": "SCALAR",
      "bufferView": 1,
      "byteOffset": 15300
    }
  ],
  "asset": {
    "generator": "obj2gltf",
    "version": "2.0"
  },
  "buffers": [
    {
      "name": "bg4_obj",
      "byteLength": 42396,
      "uri": "data:application/octet-stream;base64,"
    }
  ],
  "bufferViews": [
    {
      "name": "bufferView_0",
      "buffer": 0,
      "byteLength": 27024,
      "byteOffset": 0,
      "byteStride": 12,
      "target": 34962
    },
    {
      "name": "bufferView_1",
      "buffer": 0,
      "byteLength": 15372,
      "byteOffset": 27024,
      "target": 34963
    }
  ],
  "materials": [
    {
      "name": "cornice",
      "pbrMetallicRoughness": {
        "baseColorFactor": [
          1,
          1,
          1,
          1
        ],
        "metallicFactor": 0,
        "roughnessFactor": 0.975
      },
      "emissiveFactor": [
        0,
        0,
        0
      ],
      "alphaMode": "OPAQUE",
      "doubleSided": false
    },
    {
      "name": "railing",
      "pbrMetallicRoughness": {
        "baseColorFactor": [
          1,
          1,
          1,
          1
        ],
        "metallicFactor": 0,
        "roughnessFactor": 0.975
      },
      "emissiveFactor": [
        0,
        0,
        0
      ],
      "alphaMode": "OPAQUE",
      "doubleSided": false
    },
    {
      "name": "floor",
      "pbrMetallicRoughness": {
        "baseColorFactor": [
          0.929412,
          0.760784,
          0.639216,
          1
        ],
        "metallicFactor": 0,
        "roughnessFactor": 0.975
      },
      "emissiveFactor": [
        0,
        0,
        0
      ],
      "alphaMode": "OPAQUE",
      "doubleSided": false
    },
    {
      "name": "wall",
      "pbrMetallicRoughness": {
        "baseColorFactor": [
          0.854902,
          0.803922,
          0.713726,
          1
        ],
        "metallicFactor": 0,
        "roughnessFactor": 0.975
      },
      "emissiveFactor": [
        0,
        0,
        0
      ],
      "alphaMode": "OPAQUE",
      "doubleSided": false
    },
    {
      "name": "glass",
      "pbrMetallicRoughness": {
        "baseColorFactor": [
          0.301961,
          0.47451,
          0.372549,
          0.4
        ],
        "metallicFactor": 0,
        "roughnessFactor": 0.975
      },
      "emissiveFactor": [
        0,
        0,
        0
      ],
      "alphaMode": "BLEND",
      "doubleSided": true
    },
    {
      "name": "wall2",
      "pbrMetallicRoughness": {
        "baseColorFactor": [
          0.639216,
          0.52549,
          0.321569,
          1
        ],
        "metallicFactor": 0,
        "roughnessFactor": 0.975
      },
      "emissiveFactor": [
        0,
        0,
        0
      ],
      "alphaMode": "OPAQUE",
      "doubleSided": false
    },
    {
      "name": "door",
      "pbrMetallicRoughness": {
        "baseColorFactor": [
          0.309804,
          0.152941,
          0,
          1
        ],
        "metallicFactor": 0,
        "roughnessFactor": 0.975
      },
      "emissiveFactor": [
        0,
        0,
        0
      ],
      "alphaMode": "OPAQUE",
      "doubleSided": false
    },
    {
      "name": "water",
      "pbrMetallicRoughness": {
        "baseColorFactor": [
          0.248235,
          0.28,
          0.288235,
          0.6
        ],
        "metallicFactor": 0,
        "roughnessFactor": 0.9359999999999999
      },
      "emissiveFactor": [
        0,
        0,
        0
      ],
      "alphaMode": "BLEND",
      "doubleSided": true
    },
    {
      "name": "base",
      "pbrMetallicRoughness": {
        "baseColorFactor": [
          0.784314,
          0.784314,
          0.784314,
          1
        ],
        "metallicFactor": 0,
        "roughnessFactor": 0.975
      },
      "emissiveFactor": [
        0,
        0,
        0
      ],
      "alphaMode": "OPAQUE",
      "doubleSided": false
    }
  ],
  "meshes": [
    {
      "name": "bungalow_2_TypeB_1",
      "primitives": [
        {
          "attributes": {
            "POSITION": 0
          },
          "indices": 1,
          "material": 0,
          "mode": 4
        },
        {
          "attributes": {
            "POSITION": 2
          },
          "indices": 3,
          "material": 1,
          "mode": 4
        },
        {
          "attributes": {
            "POSITION": 4
          },
          "indices": 5,
          "material": 2,
          "mode": 4
        },
        {
          "attributes": {
            "POSITION": 6
          },
          "indices": 7,
          "material": 3,
          "mode": 4
        },
        {
          "attributes": {
            "POSITION": 8
          },
          "indices": 9,
          "material": 4,
          "mode": 4
        },
        {
          "attributes": {
            "POSITION": 10
          },
          "indices": 11,
          "material": 5,
          "mode": 4
        },
        {
          "attributes": {
            "POSITION": 12
          },
          "indices": 13,
          "material": 6,
          "mode": 4
        },
        {
          "attributes": {
            "POSITION": 14
          },
          "indices": 15,
          "material": 7,
          "mode": 4
        },
        {
          "attributes": {
            "POSITION": 16
          },
          "indices": 17,
          "material": 8,
          "mode": 4
        }
      ]
    }
  ],
  "nodes": [
    {
      "name": "bungalow_2_TypeB",
      "mesh": 0
    }
  ],
  "scene": 0,
  "scenes": [
    {
      "nodes": [
        0
      ]
    }
  ]
}
