<?xml version="1.0" encoding="UTF-8" standalone="no"?>
<!-- Copyright 2017 mathsisfun.com -->
<svg xmlns="http://www.w3.org/2000/svg" width="182.9" height="240.8" version="1.1" style="font-family:'Comic Sans MS'; font-size:13.3px; stroke-width:1px;">
<defs>
	<marker id="id2" style="overflow:visible;" orient="auto">
		<path transform="matrix(-0.4,0,0,-0.4,-4,0)" style="fill:#4e9a06; stroke:#4e9a06; stroke-width:1pt;" d="M 0,0 5,-5 -12.5,0 5,5 Z"/>
	</marker>
	<marker id="id1" style="overflow:visible;" orient="auto">
		<path transform="matrix(-0.4,0,0,-0.4,-4,0)" style="stroke:black; stroke-width:1pt;" d="M 0,0 5,-5 -12.5,0 5,5 Z"/>
	</marker>
</defs>
<g transform="matrix(0.447954,0,0,0.447954,-413.44,-178.804)">
	<g>
		<path style="fill:none; fill-opacity:0.75; stroke:#d8dadc; stroke-width:2.23; stroke-dasharray:17.9, 2.2;" d="m 924.1,601.7 h 398.8"/>
		<path style="fill:none; fill-opacity:0.75; stroke:#d8dadc; stroke-width:2.23; stroke-dasharray:17.9, 2.2;" d="m 924.1,535.6 h 398.8"/>
		<path style="fill:none; fill-opacity:0.75; stroke:#d8dadc; stroke-width:2.23; stroke-dasharray:17.9, 2.2;" d="m 924.1,469.4 h 398.8"/>
		<path style="fill:none; fill-opacity:0.75; stroke:#d8dadc; stroke-width:2.23; stroke-dasharray:17.9, 2.2;" d="m 924.1,403.3 h 398.8"/>
		<path style="fill:none; fill-opacity:0.75; stroke:#d8dadc; stroke-width:2.23; stroke-dasharray:17.9, 2.2;" d="m 924.1,932.5 h 398.8"/>
		<path style="fill:none; fill-opacity:0.75; stroke:#d8dadc; stroke-width:2.23; stroke-dasharray:17.9, 2.2;" d="m 924.1,800.2 h 398.8"/>
		<path style="fill:none; fill-opacity:0.75; stroke:#d8dadc; stroke-width:2.23; stroke-dasharray:17.9, 2.2;" d="m 924.1,734 h 398.8"/>
		<path style="fill:none; fill-opacity:0.75; stroke:#d8dadc; stroke-width:2.23; stroke-dasharray:17.9, 2.2;" d="m 924.1,667.9 h 398.8"/>
		<path style="fill:none; fill-opacity:0.75; stroke:#d8dadc; stroke-width:2.23; stroke-dasharray:17.9, 2.2;" d="m 925.9,866.3 h 398.8"/>
	</g>
</g>
<g transform="matrix(0.5,0,0,0.5,586.35,-930.694)">
	<path style="fill:none; fill-opacity:0.75; stroke:#d8dadc; stroke-width:2; stroke-dasharray:16, 2;" d="M -993.9,2339.2 V 1867.3"/>
	<path style="fill:none; fill-opacity:0.75; stroke:#d8dadc; stroke-width:2; stroke-dasharray:16, 2;" d="M -1053.2,2339.2 V 1867.3"/>
	<path style="fill:none; fill-opacity:0.75; stroke:#d8dadc; stroke-width:2; stroke-dasharray:16, 2;" d="M -1112.4,2339.2 V 1867.3"/>
	<path style="fill:none; fill-opacity:0.75; stroke:#d8dadc; stroke-width:2; stroke-dasharray:16, 2;" d="M -1171.7,2339.2 V 1867.3"/>
	<path style="fill:none; fill-opacity:0.75; stroke:#d8dadc; stroke-width:2; stroke-dasharray:16, 2;" d="M -816.1,2339.2 V 1867.3"/>
	<path style="fill:none; fill-opacity:0.75; stroke:#d8dadc; stroke-width:2; stroke-dasharray:16, 2;" d="M -875.4,2339.2 V 1867.3"/>
	<path style="fill:none; fill-opacity:0.75; stroke:#d8dadc; stroke-width:2; stroke-dasharray:16, 2;" d="M -934.7,2339.2 V 1867.3"/>
</g>
<path style="marker-end:url(#id1); fill:#2e3436; fill-opacity:0.75; stroke:#2e3436; stroke-width:1.5;" d="M 59.8,240.8 V 3"/>
<path style="marker-end:url(#id1); fill:#2e3436; fill-opacity:0.75; stroke:#2e3436; stroke-width:1.5;" d="M 3,209.3 H 180"/>
<text x="-37.4" y="131" transform="rotate(-59.949)" style="font-family:Arial; font-size:42.7px; fill:#0197fd; stroke-width:1.1;">m</text>
<text x="115" y="188.7" style="font-family:Arial; font-size:42.7px; fill:#4e9a06; stroke-width:1.1;">b</text>
<text x="150.8" y="205.3" style="font-size:29.3px; font-style:italic; fill:black; stroke-width:0.5px;">x</text>
<text x="63.6" y="21.4" style="font-size:29.3px; font-style:italic; fill:black; stroke-width:0.5px;">y</text>
<path style="fill:#0197fd; stroke:#0197fd; stroke-width:2.94;" d="M 30.2,238.9 148.7,3"/>
<path style="marker-end:url(#id2); fill:none; stroke:#4e9a06; stroke-width:1.9;" d="m 113.6,179.4 -43.7,0.3"/>
<text x="54.6" y="223.3" style="font-style:italic; fill:black;">0</text>
<text x="84.6" y="223.3" style="font-style:italic; fill:black;">1</text>
<text x="112.6" y="223.3" style="font-style:italic; fill:black;">2</text>
<text x="142.6" y="223.3" style="font-style:italic; fill:black;">3</text>
<text x="24.6" y="223.3" style="font-style:italic; fill:black;">-1</text>
<text x="47.3" y="184.2" style="font-style:italic; fill:black;">1</text>
<text x="47.3" y="153.7" style="font-style:italic; fill:black;">2</text>
<text x="47.3" y="123.2" style="font-style:italic; fill:black;">3</text>
<text x="47.3" y="94.6" style="font-style:italic; fill:black;">4</text>
<text x="47.3" y="64.5" style="font-style:italic; fill:black;">5</text>
<text x="47.3" y="34.6" style="font-style:italic; fill:black;">6</text>
<text x="49.2" y="214.4" style="font-style:italic; fill:black;">0</text>
</svg>