<?xml version="1.0" encoding="UTF-8" standalone="no"?>
<!-- Created with Inkscape (http://www.inkscape.org/) -->

<svg
   xmlns:dc="http://purl.org/dc/elements/1.1/"
   xmlns:cc="http://creativecommons.org/ns#"
   xmlns:rdf="http://www.w3.org/1999/02/22-rdf-syntax-ns#"
   xmlns:svg="http://www.w3.org/2000/svg"
   xmlns="http://www.w3.org/2000/svg"
   xmlns:sodipodi="http://sodipodi.sourceforge.net/DTD/sodipodi-0.dtd"
   xmlns:inkscape="http://www.inkscape.org/namespaces/inkscape"
   width="558.55157"
   height="91.320656"
   id="svg5294"
   version="1.1"
   inkscape:version="0.91 r13725"
   sodipodi:docname="matrix-minors2.svg">
  <sodipodi:namedview
     id="base"
     pagecolor="#ffffff"
     bordercolor="#666666"
     borderopacity="1.0"
     inkscape:pageopacity="0.0"
     inkscape:pageshadow="2"
     inkscape:zoom="1.9225013"
     inkscape:cx="350.52201"
     inkscape:cy="43.721393"
     inkscape:document-units="px"
     inkscape:current-layer="layer1"
     showgrid="false"
     inkscape:window-width="1366"
     inkscape:window-height="745"
     inkscape:window-x="-8"
     inkscape:window-y="-8"
     inkscape:window-maximized="1"
     showborder="true" />
  <defs
     id="defs5296" />
  <metadata
     id="metadata5299">
    <rdf:RDF>
      <cc:Work
         rdf:about="">
        <dc:format>image/svg+xml</dc:format>
        <dc:type
           rdf:resource="http://purl.org/dc/dcmitype/StillImage" />
        <dc:title />
      </cc:Work>
    </rdf:RDF>
  </metadata>
  <g
     id="layer1"
     inkscape:groupmode="layer"
     inkscape:label="Layer 1"
     transform="translate(-3469.6307,-2418.2062)">
    <path
       style="color:#000000;display:inline;overflow:visible;visibility:visible;fill:#0169c9;fill-opacity:1;fill-rule:nonzero;stroke:#636466;stroke-width:0.09941137;stroke-linecap:butt;stroke-linejoin:round;stroke-miterlimit:4;stroke-dasharray:none;stroke-dashoffset:0;stroke-opacity:1;marker:none;enable-background:accumulate"
       id="path6438"
       d="m 3839.7004,2419.4857 c 0.061,-1e-4 0.1215,0 0.1822,0 0.059,0 0.1186,0 0.1778,0 0.063,-1e-4 0.1264,-1e-4 0.1895,0 0.088,0 0.1755,-0.011 0.2631,-0.011 0.1127,0 0.2255,0 0.3383,0 0.1045,-1e-4 0.2093,0 0.314,0 0.085,0 0.1691,0 0.2536,0 0.091,-1e-4 0.1832,0 0.2749,0 0.089,-1e-4 0.1772,0 0.266,0 0.086,-1e-4 0.1729,0 0.2593,0 0.081,-1e-4 0.1635,0 0.2453,0 0.076,-1e-4 0.1511,0 0.2265,0 0.068,-1e-4 0.1371,-2e-4 0.2056,0 0.066,0 0.1327,0 0.1991,-0.011 0.065,0 0.1295,0 0.1943,-0.011 0.06,0 0.1215,0 0.1822,-0.011 0.053,-10e-5 0.1045,0 0.1571,-0.011 0.061,0 0.1207,-0.011 0.1811,-0.011 0.062,0 0.1234,-0.011 0.185,-0.011 0.059,0 0.1188,0 0.1781,-0.011 0.055,0 0.1089,0 0.1635,-0.011 0.051,0 0.1001,0 0.1504,-0.011 0.046,0 0.092,0 0.1386,-0.011 0.043,0 0.085,0 0.1276,-0.011 0.039,-1e-4 0.078,0 0.1174,0 0.036,0 0.073,0 0.1078,0 0.033,0 0.066,0 0.099,0 0.031,-1e-4 0.062,0 0.091,0 0.028,0 0.056,0 0.085,0 0.025,0 0.052,0 0.078,0 0.04,0 0.078,0 0.1175,0 0.1556,0 0.3051,0.031 0.4504,0.078 0.1976,0.07 0.3553,0.1935 0.4893,0.3403 0.095,0.11 0.1593,0.2367 0.2095,0.368 0.03,0.079 0.048,0.1603 0.066,0.2417 0.015,0.068 0.025,0.1372 0.035,0.206 0.011,0.079 0.018,0.1578 0.023,0.237 0,0.066 0.011,0.132 0.011,0.1981 0,0.069 0.011,0.1396 0.011,0.2094 0,0.074 0,0.1476 0,0.2213 0,0.08 0,0.1596 0,0.2395 0,0.086 0,0.1706 -0.011,0.2559 0,0.09 0,0.1793 -0.011,0.2689 0,0.1001 -0.011,0.2003 -0.013,0.3004 0,0.1067 -0.011,0.2122 -0.018,0.3182 -0.011,0.1089 -0.014,0.2182 -0.021,0.3273 -0.011,0.1149 -0.015,0.2299 -0.023,0.3447 -0.011,0.1205 -0.017,0.2409 -0.025,0.3614 -0.011,0.1258 -0.018,0.2517 -0.027,0.3774 -0.011,0.1241 -0.019,0.2482 -0.028,0.3723 -0.011,0.1257 -0.018,0.2512 -0.025,0.3769 -0.011,0.1319 -0.018,0.2638 -0.026,0.3957 -0.011,0.1401 -0.019,0.2801 -0.028,0.4204 -0.011,0.1482 -0.019,0.2964 -0.026,0.4447 -0.011,0.1574 -0.017,0.315 -0.025,0.4725 -0.011,0.1659 -0.015,0.3318 -0.023,0.4979 -0.011,0.1787 -0.014,0.3575 -0.021,0.5363 -0.011,0.1919 -0.013,0.3838 -0.019,0.5756 0,0.2056 -0.011,0.411 -0.012,0.6166 0,0.2178 -0.011,0.4356 -0.011,0.6534 0,0.2253 -0.011,0.4504 -0.011,0.6756 0,0.2266 -0.011,0.4533 -0.011,0.68 0,0.2266 0,0.4532 -0.011,0.6798 0,0.2277 0,0.4555 -0.011,0.6832 0,0.2281 0,0.4562 -0.011,0.6842 0,0.2293 0,0.4586 -0.011,0.6879 0,0.2304 0,0.4609 0,0.6913 0,0.2327 3e-4,0.4653 0,0.6981 0,0.2358 0,0.4716 0.011,0.7075 0,0.2398 0.011,0.4797 0.012,0.7195 0,0.2418 0.011,0.4837 0.016,0.7254 0.011,0.2424 0.014,0.4846 0.023,0.7268 0.011,0.2447 0.019,0.4892 0.028,0.7338 0.011,0.2438 0.018,0.4877 0.026,0.7315 0.011,0.2351 0.015,0.4702 0.024,0.7053 0.011,0.2277 0.017,0.4552 0.026,0.6829 0.011,0.2241 0.016,0.4482 0.024,0.6722 0.011,0.2212 0.014,0.4423 0.023,0.6634 0.011,0.2208 0.017,0.4416 0.025,0.6624 0.011,0.2215 0.016,0.4429 0.024,0.6644 0.011,0.2196 0.015,0.4392 0.022,0.6589 0.011,0.2168 0.015,0.4336 0.023,0.6503 0.011,0.2187 0.015,0.4373 0.023,0.6561 0.011,0.2195 0.014,0.4391 0.021,0.6587 0.011,0.2177 0.013,0.4354 0.02,0.6531 0.011,0.2165 0.012,0.4329 0.019,0.6494 0.011,0.2147 0.011,0.4295 0.017,0.6443 0.011,0.2103 0.011,0.4207 0.015,0.6311 0.011,0.2102 0.011,0.4203 0.012,0.6305 0,0.2113 0,0.4226 0.011,0.6339 0,0.2126 0,0.4254 0,0.6379 0,0.2144 -2e-4,0.4288 0,0.6431 0,0.2146 0,0.4291 0,0.6437 0,0.2146 0,0.4292 0,0.6438 0,0.2188 0,0.4376 -0.011,0.6563 0,0.2221 -0.011,0.4441 -0.013,0.6661 0,0.2238 -0.011,0.4476 -0.015,0.6714 0,0.2279 -0.011,0.4559 -0.014,0.6839 -0.011,0.2319 -0.011,0.4638 -0.017,0.6958 0,0.2304 -0.011,0.461 -0.015,0.6916 0,0.2259 -0.011,0.4518 -0.014,0.6779 0,0.2217 -0.011,0.4435 -0.013,0.6653 0,0.2215 -0.011,0.443 -0.015,0.6645 0,0.2193 -0.011,0.4388 -0.014,0.658 0,0.221 -0.011,0.4419 -0.013,0.6629 0,0.2238 -0.011,0.4477 -0.012,0.6716 0,0.2256 -0.011,0.4513 -0.011,0.677 0,0.2275 -0.011,0.455 -0.012,0.6825 0,0.2231 -0.011,0.4462 -0.013,0.6691 0,0.2206 -0.011,0.441 -0.012,0.6616 0,0.2181 -0.011,0.4362 -0.011,0.6545 0,0.2169 -0.011,0.4339 -0.011,0.6508 0,0.2176 -0.011,0.4351 -0.011,0.6527 0,0.2146 -0.011,0.4293 -0.012,0.6439 0,0.212 -0.011,0.4241 -0.011,0.6359 0,0.2095 -0.011,0.4188 -0.011,0.6282 0,0.2099 -0.011,0.42 -0.011,0.6299 0,0.2113 0,0.4225 -0.011,0.6338 0,0.2108 0,0.4215 -0.011,0.6322 0,0.2113 0,0.4225 -0.011,0.6337 0,0.2113 0,0.4226 -0.011,0.6339 0,0.2094 0,0.4186 -0.011,0.6279 0,0.209 0,0.4181 0,0.6271 0,0.209 0,0.4181 0,0.627 0,0.2054 0,0.4105 0,0.6157 0,0.197 0,0.394 0,0.5911 0,0.186 0,0.372 0,0.5581 0,0.1761 0,0.3521 0,0.5282 0,0.1656 0,0.3313 0,0.4971 0,0.1562 0,0.3124 0,0.4687 0,0.1489 0,0.2979 0,0.4468 0,0.1449 0,0.2898 0,0.4347 0,0.1433 0,0.2868 0,0.43 0,0.139 0,0.2781 0,0.417 -3e-4,0.1328 0,0.2654 0,0.3982 10e-5,0.1341 0,0.2682 0,0.4023 0,0.1278 0,0.2556 -0.011,0.3836 0,0.1218 0,0.2437 -0.011,0.3656 0,0.1179 -0.011,0.2356 -0.011,0.3533 0,0.1222 -0.012,0.2443 -0.02,0.3665 -0.011,0.1107 -0.014,0.2214 -0.021,0.332 -0.011,0.1012 -0.013,0.2034 -0.02,0.305 -0.011,0.095 -0.012,0.1894 -0.018,0.284 -0.011,0.098 -0.013,0.1949 -0.021,0.2923 -0.011,0.091 -0.013,0.1824 -0.02,0.2737 -0.011,0.089 -0.012,0.1779 -0.019,0.2668 -0.011,0.085 -0.011,0.1704 -0.016,0.2555 0,0.082 -0.011,0.1643 -0.015,0.2466 0,0.079 -0.011,0.1574 -0.014,0.2363 0,0.075 -0.011,0.1506 -0.013,0.2259 0,0.072 -0.011,0.1423 -0.012,0.2134 0,0.066 -0.011,0.1313 -0.011,0.1968 0,0.061 -0.011,0.1208 -0.011,0.1812 0,0.056 -0.011,0.1112 -0.011,0.1669 0,0.051 -0.011,0.1023 -0.011,0.1535 0,0.047 0,0.095 -0.011,0.1414 0,0.043 0,0.087 -0.011,0.1302 0,0.04 0,0.08 -0.011,0.1198 0,0.036 0,0.074 -0.011,0.1103 0,0.034 0,0.068 -0.011,0.1012 0,0.031 0,0.063 0,0.093 0,0.029 0,0.057 0,0.086 0,0.026 0,0.053 0,0.079 0,0.024 0,0.048 0,0.073 0,0.04 -0.011,0.08 -0.011,0.1198 -0.011,0.076 -0.027,0.1501 -0.051,0.2234 -0.036,0.1182 -0.1012,0.2242 -0.1756,0.3255 -0.057,0.074 -0.1261,0.1383 -0.1991,0.1988 -0.086,0.072 -0.1855,0.1237 -0.2875,0.1724 -0.081,0.036 -0.1683,0.064 -0.256,0.086 -0.051,0.012 -0.1023,0.022 -0.1542,0.032 -0.059,0.011 -0.1187,0.019 -0.1785,0.025 -0.045,0 -0.089,0.011 -0.1344,0.014 -0.052,0 -0.1034,0.011 -0.155,0.013 -0.056,0 -0.1114,0.011 -0.1672,0.011 -0.047,0 -0.096,0.011 -0.143,0.011 -0.056,0 -0.113,0.011 -0.1697,0.013 -0.059,0 -0.1195,0.011 -0.1792,0.013 -0.062,0 -0.1221,0.011 -0.1831,0.012 -0.057,0 -0.1148,0.011 -0.1722,0.011 -0.053,0 -0.1056,0.011 -0.1578,0.011 -0.042,0 -0.084,0.011 -0.1246,0.011 -0.055,0 -0.1102,0.011 -0.1653,0.013 -0.057,0 -0.1147,0.011 -0.172,0.013 -0.056,0 -0.1117,0.011 -0.1676,0.011 -0.052,0 -0.1034,0.011 -0.1544,0.011 -0.05,0 -0.099,0.011 -0.1486,0.011 -0.048,0 -0.098,0.011 -0.1462,0.011 -0.047,0 -0.095,0 -0.1415,0.011 -0.051,0 -0.1001,0 -0.1507,0.011 -0.06,0 -0.1203,0 -0.1805,0.011 -0.059,0 -0.1199,10e-5 -0.1797,0 -0.055,10e-5 -0.1104,2e-4 -0.1657,2e-4 -0.067,10e-5 -0.1338,2e-4 -0.2007,3e-4 -0.069,1e-4 -0.1385,0 -0.2077,0 -0.059,0 -0.1191,-0.011 -0.1786,-0.011 -0.055,0 -0.1108,0 -0.1662,-0.011 -0.056,0 -0.1115,0 -0.1671,-0.011 -0.058,0 -0.1159,0 -0.1737,-0.011 -0.055,1e-4 -0.1112,0 -0.1668,-0.011 -0.052,1e-4 -0.1034,0 -0.1545,0 -0.05,1e-4 -0.1001,0 -0.1503,0 -0.051,1e-4 -0.1023,0 -0.1533,0 -0.049,1e-4 -0.099,2e-4 -0.1491,0 -0.042,1e-4 -0.082,0 -0.1246,0 -0.042,1e-4 -0.085,1e-4 -0.127,2e-4 -0.037,1e-4 -0.076,0 -0.1137,0 -0.045,0 -0.091,0 -0.1366,0 -0.042,1e-4 -0.085,0 -0.1267,0 -0.039,0 -0.078,0 -0.1167,0 -0.036,0 -0.072,0 -0.1078,0 -0.033,1e-4 -0.066,0 -0.099,0 -0.049,1e-4 -0.051,0 0,0 0,0 -0.279,-1.8574 -0.279,-1.8574 l 0,0 c 0.062,-0.011 0.1233,-0.013 0.1855,-0.014 0.033,0 0.066,0 0.099,0 0.036,0 0.072,0 0.1078,0 0.038,0 0.078,0 0.1167,0 0.042,0 0.085,0 0.1268,0 0.046,0 0.092,0 0.1386,-0.011 0.059,0 0.1184,0 0.1776,0 0.054,-1e-4 0.1067,-2e-4 0.1609,-2e-4 0.054,-2e-4 0.1078,0 0.1616,0 0.051,-2e-4 0.1001,-3e-4 0.1508,0 0.053,-2e-4 0.1056,0 0.158,0 0.053,-2e-4 0.1045,0 0.1566,0 0.052,-2e-4 0.1045,0 0.1559,0 0.056,-2e-4 0.1115,0 0.1671,0.011 0.059,0 0.1194,0 0.1791,0.011 0.059,0 0.118,0 0.177,0.011 0.057,0 0.1135,0.011 0.1703,0.011 0.059,0 0.1186,0 0.1779,0.011 0.053,0 0.1045,0 0.1574,0 0.05,-2e-4 0.099,-2e-4 0.148,-3e-4 0.054,-1e-4 0.1089,-2e-4 0.163,-2e-4 0.048,-10e-5 0.098,0 0.1463,-2e-4 0.045,-10e-5 0.089,0 0.1342,-0.011 0.045,0 0.089,0 0.1337,-0.011 0.045,0 0.089,0 0.1344,-0.011 0.046,0 0.092,0 0.1392,-0.011 0.047,0 0.095,-0.011 0.1416,-0.011 0.052,0 0.1023,-0.011 0.1538,-0.011 0.053,0 0.1056,-0.011 0.1585,-0.011 0.051,0 0.1023,-0.011 0.1533,-0.011 0.05,0 0.099,-0.011 0.1487,-0.012 0.061,0 0.1212,-0.011 0.1819,-0.014 0.053,0 0.1056,-0.011 0.1579,-0.011 0.056,0 0.1132,-0.011 0.1697,-0.011 0.056,0 0.1129,-0.011 0.1693,-0.011 0.053,0 0.1067,-0.011 0.1592,-0.011 0.053,0 0.1056,-0.011 0.1591,-0.013 0.062,0 0.1222,-0.011 0.1835,-0.014 0.045,0 0.091,0 0.1366,-0.011 0.035,0 0.07,-0.011 0.1056,-0.011 0.031,0 0.062,-0.011 0.092,-0.011 0.043,-0.011 -0.011,0 0.031,0 0.011,-1e-4 0.039,-0.011 0.03,-0.011 -0.036,0.011 -0.073,0.022 -0.1067,0.037 -0.062,0.03 -0.1223,0.063 -0.1738,0.1078 -0.043,0.035 -0.082,0.075 -0.1148,0.1179 -0.052,0.072 -0.098,0.1459 -0.1224,0.2291 -0.011,0.036 -0.021,0.072 -0.023,0.1089 0,-0.035 0,0.021 0,-0.011 0,-0.024 0,-0.048 0,-0.073 0,-0.026 0,-0.053 0,-0.079 0,-0.029 0,-0.057 0,-0.086 0,-0.031 0,-0.063 0,-0.093 0,-0.034 0,-0.068 0.011,-0.1012 0,-0.037 0,-0.074 0.011,-0.1103 0,-0.04 0,-0.08 0.011,-0.1199 0,-0.043 0,-0.087 0.011,-0.1301 0,-0.047 0,-0.095 0.011,-0.1415 0,-0.052 0.011,-0.1023 0.011,-0.1535 0,-0.056 0.011,-0.1112 0.011,-0.1668 0,-0.061 0.011,-0.1208 0.011,-0.1812 0,-0.066 0.011,-0.1312 0.011,-0.1968 0,-0.072 0.011,-0.1425 0.012,-0.2138 0,-0.077 0.011,-0.1534 0.013,-0.2302 0,-0.08 0.011,-0.1596 0.014,-0.2395 0,-0.084 0.011,-0.1681 0.015,-0.2521 0.011,-0.087 0.011,-0.1735 0.016,-0.2602 0.011,-0.09 0.012,-0.1815 0.019,-0.2721 0.011,-0.094 0.013,-0.1871 0.02,-0.2806 0.011,-0.09 0.014,-0.1805 0.019,-0.2708 0.011,-0.097 0.012,-0.1925 0.019,-0.2888 0.011,-0.1012 0.013,-0.2034 0.02,-0.305 0.011,-0.11 0.014,-0.2197 0.021,-0.3295 0.011,-0.1078 0.013,-0.2151 0.018,-0.3228 0,-0.11 0.011,-0.2195 0.011,-0.3291 0,-0.1173 0,-0.2344 0.011,-0.3516 0,-0.1278 0,-0.2556 0.011,-0.3833 0,-0.1275 0,-0.2549 0,-0.3824 2e-4,-0.1329 0,-0.2658 0,-0.3986 2e-4,-0.1392 0,-0.2783 0,-0.4176 0,-0.1436 0,-0.2871 0,-0.4308 0,-0.1452 0,-0.2903 0,-0.4355 0,-0.1491 0,-0.2983 0,-0.4473 0,-0.1564 0,-0.3128 0,-0.4692 0,-0.1659 0,-0.3316 0,-0.4974 0,-0.1761 0,-0.3523 0,-0.5284 0,-0.1863 0,-0.3724 0,-0.5586 0,-0.1971 0,-0.3944 0,-0.5915 0,-0.2056 0,-0.4109 0,-0.6164 0,-0.2096 0,-0.4189 0,-0.6285 0,-0.2095 0,-0.4191 0,-0.6287 0,-0.2098 0,-0.4196 0.011,-0.6293 0,-0.2119 0,-0.4237 0.011,-0.6356 0,-0.2119 0,-0.4237 0.011,-0.6357 0,-0.2114 0,-0.4227 0.011,-0.6343 0,-0.2119 0,-0.424 0.011,-0.6361 0,-0.2109 0.011,-0.4217 0.011,-0.6326 0,-0.2102 0.011,-0.4204 0.011,-0.6306 0,-0.2127 0.011,-0.4255 0.011,-0.6382 0,-0.2152 0.011,-0.4304 0.012,-0.6455 0,-0.2153 0.011,-0.4307 0.011,-0.6461 0,-0.2176 0.011,-0.4356 0.011,-0.6534 0,-0.2191 0.011,-0.4381 0.011,-0.6571 0,-0.2213 0.011,-0.4427 0.012,-0.6642 0,-0.2237 0.011,-0.4473 0.014,-0.6711 0,-0.2242 0.011,-0.4485 0.012,-0.6727 0,-0.2268 0.011,-0.4534 0.011,-0.68 0,-0.2249 0.011,-0.45 0.012,-0.6749 0,-0.2222 0.011,-0.4444 0.013,-0.6665 0,-0.2204 0.011,-0.441 0.014,-0.6615 0,-0.2193 0.011,-0.4385 0.015,-0.6578 0,-0.2228 0.011,-0.4454 0.013,-0.6682 0,-0.2267 0.011,-0.4535 0.014,-0.6803 0,-0.2315 0.011,-0.463 0.017,-0.6946 0.011,-0.2313 0.011,-0.4625 0.017,-0.6937 0,-0.2272 0.011,-0.4543 0.014,-0.6815 0,-0.2248 0.011,-0.4498 0.015,-0.6746 0,-0.2173 0.011,-0.4346 0.013,-0.6519 0,-0.2132 0.011,-0.4265 0.011,-0.6397 0,-0.215 0,-0.43 0,-0.645 0,-0.2141 0,-0.4282 0,-0.6424 0,-0.2117 0,-0.4235 0,-0.6352 0,-0.209 1e-4,-0.418 0,-0.627 0,-0.2062 0,-0.4123 -0.011,-0.6184 0,-0.205 -0.011,-0.41 -0.012,-0.6148 0,-0.2097 -0.011,-0.4192 -0.015,-0.6288 0,-0.2139 -0.011,-0.4278 -0.016,-0.6415 -0.011,-0.2154 -0.012,-0.4308 -0.019,-0.6462 -0.011,-0.2165 -0.013,-0.433 -0.019,-0.6496 -0.011,-0.2183 -0.014,-0.4365 -0.021,-0.6547 -0.011,-0.2172 -0.015,-0.4344 -0.022,-0.6516 -0.011,-0.2186 -0.017,-0.4373 -0.023,-0.656 -0.011,-0.2184 -0.014,-0.4367 -0.022,-0.6551 -0.011,-0.22 -0.015,-0.4401 -0.024,-0.6601 -0.011,-0.2213 -0.017,-0.4427 -0.025,-0.664 -0.011,-0.222 -0.014,-0.444 -0.023,-0.6661 -0.011,-0.2228 -0.015,-0.4456 -0.024,-0.6685 -0.011,-0.2281 -0.018,-0.4562 -0.026,-0.6845 -0.011,-0.2358 -0.015,-0.4718 -0.024,-0.7077 -0.011,-0.2427 -0.017,-0.4853 -0.025,-0.728 -0.011,-0.2463 -0.019,-0.4926 -0.028,-0.7389 -0.011,-0.2468 -0.017,-0.4937 -0.023,-0.7405 -0.011,-0.246 -0.012,-0.492 -0.017,-0.738 0,-0.2432 -0.011,-0.4864 -0.013,-0.7295 0,-0.2399 -0.011,-0.4797 -0.011,-0.7196 0,-0.237 0,-0.4738 0,-0.7107 0,-0.234 0,-0.4679 0,-0.7018 0,-0.2298 0,-0.4597 0.011,-0.6897 0,-0.2286 0,-0.4573 0.011,-0.686 0,-0.2284 0,-0.4567 0.011,-0.6851 0,-0.2273 0,-0.4547 0.011,-0.6821 0,-0.2275 0.011,-0.4548 0.011,-0.6822 0,-0.2263 0.011,-0.4525 0.011,-0.6787 0,-0.2193 0.011,-0.4387 0.011,-0.658 0,-0.2099 0.011,-0.4198 0.013,-0.6297 0,-0.1975 0.012,-0.395 0.019,-0.5924 0.011,-0.1827 0.013,-0.3653 0.021,-0.5478 0.011,-0.1701 0.015,-0.3401 0.023,-0.5101 0.011,-0.1616 0.016,-0.3232 0.025,-0.4847 0.011,-0.1536 0.018,-0.3072 0.028,-0.4606 0.011,-0.1394 0.019,-0.2788 0.027,-0.4181 0.011,-0.1314 0.018,-0.2625 0.026,-0.3937 0.011,-0.1296 0.017,-0.2591 0.025,-0.3887 0.011,-0.1277 0.019,-0.2553 0.028,-0.383 0.011,-0.1225 0.019,-0.2448 0.028,-0.3674 0.011,-0.1196 0.018,-0.2391 0.025,-0.3588 0.011,-0.112 0.017,-0.224 0.022,-0.3362 0.011,-0.1067 0.014,-0.2128 0.021,-0.3193 0.011,-0.1001 0.012,-0.2002 0.017,-0.3004 0,-0.093 0.011,-0.1867 0.012,-0.2803 0,-0.087 0.011,-0.1733 0.011,-0.26 0,-0.075 0,-0.1504 0.011,-0.2256 0,-0.067 0,-0.135 0,-0.2025 0,-0.061 0,-0.1202 0,-0.1803 0,-0.056 0,-0.1129 -0.011,-0.1694 0,-0.057 -0.011,-0.1158 -0.011,-0.1735 0,-0.036 0,-0.072 -0.011,-0.1078 0,-0.03 -0.011,-0.061 -0.014,-0.09 0,-0.018 -0.012,-0.051 0,-0.011 0.03,0.067 0.066,0.1314 0.1174,0.1875 0.1023,0.1089 0.2232,0.1984 0.3714,0.2494 0.1034,0.032 0.2086,0.057 0.3187,0.055 0.079,0 -0.011,10e-5 -0.026,10e-5 -0.025,0 -0.052,0 -0.078,0 -0.029,0 -0.056,0 -0.085,0 -0.031,0 -0.061,0 -0.091,0 -0.033,0 -0.066,0 -0.099,0 -0.036,0 -0.073,0 -0.1078,0 -0.04,0 -0.078,0 -0.1175,0 -0.043,0 -0.085,0 -0.1276,0.011 -0.046,0 -0.092,0 -0.1385,0.011 -0.051,0 -0.1001,0 -0.1505,0.011 -0.055,0 -0.1089,0 -0.1634,0.011 -0.058,0 -0.1165,0 -0.1748,0.011 -0.059,0 -0.1183,0.011 -0.1775,0.011 -0.059,0 -0.1188,0.011 -0.1782,0.011 -0.066,0 -0.1325,0.011 -0.1988,0.011 -0.061,0 -0.1202,0 -0.1802,0.011 -0.065,0 -0.1298,0 -0.1946,0.011 -0.074,0 -0.1473,0.011 -0.2209,0.011 -0.076,1e-4 -0.1515,0 -0.2271,0 -0.076,1e-4 -0.151,0 -0.2264,0 -0.081,1e-4 -0.1634,0 -0.245,0 -0.086,1e-4 -0.172,0 -0.258,0 -0.088,1e-4 -0.1766,0 -0.2648,0 -0.096,0 -0.1908,0 -0.2861,0 -0.1106,2e-4 -0.2211,4e-4 -0.3316,0 -0.09,0 -0.1811,-0.011 -0.2719,0 -0.079,1e-4 -0.1575,2e-4 -0.2363,0 -0.089,0 -0.1794,0.011 -0.2691,0.011 -0.09,0 -0.181,0.011 -0.2714,0.011 -0.07,1e-4 -0.1398,2e-4 -0.2096,0 -0.065,1e-4 -0.13,0 -0.1949,0 0,0 0.043,-1.8743 0.043,-1.8743 z"
       inkscape:connector-curvature="0" />
    <path
       d="m 3477.0527,2418.5018 c -0.061,0 -0.1216,0 -0.1823,0 -0.059,0 -0.1186,0 -0.1779,0 -0.063,0 -0.1262,0 -0.1893,-0.011 -0.088,0 -0.1754,-0.011 -0.2631,-0.013 -0.1126,-0.011 -0.2254,-0.011 -0.3381,-0.011 -0.1045,0 -0.2095,0 -0.3141,0 -0.085,0 -0.1692,0 -0.2536,0 -0.091,0 -0.1832,-0.011 -0.2748,-0.011 -0.089,0 -0.1772,-0.011 -0.2659,-0.011 -0.087,0 -0.1729,-0.011 -0.2594,-0.011 -0.081,0 -0.1634,-0.011 -0.2452,-0.011 -0.076,0 -0.151,-0.011 -0.2264,-0.011 -0.068,0 -0.1371,0 -0.2055,-0.011 -0.066,0 -0.1328,0 -0.1991,-0.011 -0.065,0 -0.1294,-0.011 -0.1942,-0.011 -0.061,0 -0.1215,0 -0.1822,-0.011 -0.053,0 -0.1045,0 -0.1569,-0.011 -0.061,0 -0.1208,-0.011 -0.1811,-0.011 -0.062,0 -0.1233,-0.011 -0.1849,-0.011 -0.059,0 -0.1187,-0.011 -0.178,-0.011 -0.055,0 -0.1089,-0.011 -0.1634,-0.011 -0.051,0 -0.1001,-0.011 -0.1504,-0.011 -0.046,0 -0.092,0 -0.1385,-0.011 -0.043,0 -0.085,0 -0.1275,-0.011 -0.04,0 -0.078,0 -0.1173,-0.011 -0.036,0 -0.073,0 -0.1078,-0.011 -0.033,0 -0.066,0 -0.1001,0 -0.031,0 -0.06,0 -0.091,0 -0.028,-4e-4 -0.056,0 -0.085,0 -0.025,-4e-4 -0.052,0 -0.078,0 -0.039,0 -0.078,0 -0.1174,0 -0.1557,-0.011 -0.3055,0.028 -0.4512,0.073 -0.1984,0.068 -0.3573,0.1897 -0.4928,0.3351 -0.096,0.1089 -0.1616,0.2351 -0.2131,0.366 -0.03,0.078 -0.051,0.1597 -0.068,0.2409 -0.015,0.068 -0.026,0.1369 -0.037,0.2056 -0.012,0.079 -0.02,0.1576 -0.025,0.2367 0,0.066 -0.011,0.132 -0.013,0.198 0,0.069 -0.011,0.1396 -0.011,0.2094 0,0.074 -0.011,0.1476 -0.011,0.2213 0,0.08 0,0.1596 0,0.2394 3e-4,0.086 0,0.1707 0,0.256 0,0.089 0,0.1792 0.011,0.269 0,0.1001 0.011,0.2003 0.011,0.3005 0,0.1067 0.011,0.2123 0.014,0.3184 0,0.1089 0.011,0.2183 0.018,0.3274 0.011,0.1151 0.013,0.2301 0.02,0.345 0.011,0.1206 0.014,0.2411 0.022,0.3615 0.011,0.1261 0.015,0.2519 0.024,0.3778 0.011,0.1242 0.015,0.2483 0.023,0.3725 0.011,0.1257 0.014,0.2514 0.021,0.3771 0.011,0.132 0.015,0.264 0.023,0.396 0.011,0.1403 0.015,0.2804 0.023,0.4207 0.011,0.1482 0.015,0.2965 0.023,0.4449 0.011,0.1575 0.013,0.3152 0.02,0.4727 0.011,0.1661 0.012,0.3322 0.018,0.4982 0.011,0.1788 0.011,0.3576 0.015,0.5364 0,0.192 0.011,0.3839 0.012,0.5759 0,0.2055 0,0.4109 0.011,0.6165 0,0.2178 0,0.4357 0,0.6535 0,0.2253 0,0.4505 0,0.6758 0,0.2266 0,0.4533 0,0.68 0,0.2266 0,0.4533 0,0.6799 2e-4,0.2277 2e-4,0.4555 2e-4,0.6832 -2e-4,0.228 -3e-4,0.4562 0,0.6842 -2e-4,0.2294 0,0.4586 0,0.688 -2e-4,0.2303 0,0.4609 0,0.6912 0,0.2328 0,0.4654 -0.011,0.6981 0,0.2358 -0.011,0.4715 -0.015,0.7074 -0.011,0.2398 -0.013,0.4795 -0.02,0.7193 -0.011,0.2417 -0.014,0.4835 -0.023,0.7253 -0.011,0.2421 -0.02,0.4843 -0.03,0.7264 -0.011,0.2446 -0.023,0.489 -0.035,0.7336 -0.011,0.2437 -0.022,0.4873 -0.033,0.7311 -0.011,0.2351 -0.021,0.47 -0.032,0.7051 -0.011,0.2275 -0.022,0.4551 -0.033,0.6825 -0.011,0.224 -0.021,0.4481 -0.031,0.672 -0.011,0.221 -0.019,0.442 -0.03,0.6631 -0.011,0.2207 -0.022,0.4413 -0.032,0.662 -0.011,0.2214 -0.021,0.4428 -0.031,0.6642 -0.011,0.2195 -0.02,0.439 -0.029,0.6586 -0.011,0.2167 -0.02,0.4333 -0.03,0.65 -0.011,0.2187 -0.02,0.4373 -0.03,0.6559 -0.011,0.2194 -0.019,0.439 -0.028,0.6584 -0.011,0.2177 -0.018,0.4353 -0.026,0.6529 -0.011,0.2164 -0.016,0.4328 -0.024,0.6493 -0.011,0.2146 -0.015,0.4292 -0.023,0.6439 -0.011,0.2104 -0.015,0.4207 -0.022,0.631 -0.011,0.2101 -0.013,0.4202 -0.019,0.6303 -0.011,0.2113 -0.011,0.4226 -0.013,0.6339 0,0.2127 -0.011,0.4253 -0.011,0.6378 0,0.2143 0,0.4287 0,0.643 0,0.2146 0,0.4292 0,0.6438 0,0.2146 0,0.4292 0,0.6438 0,0.2188 0,0.4376 10e-5,0.6564 0,0.222 0,0.4441 0.011,0.6661 0,0.2239 0,0.4476 0.011,0.6715 0,0.228 0,0.456 0.011,0.6841 0,0.232 0.011,0.4638 0.011,0.6958 0,0.2306 0.011,0.4612 0.011,0.6918 0,0.226 0,0.4519 0.011,0.678 0,0.2217 0,0.4436 0.011,0.6655 0,0.2215 0,0.443 0.011,0.6646 0,0.2193 0,0.4388 0.011,0.6581 0,0.221 0,0.4419 0.011,0.6629 0,0.2239 0,0.4478 0,0.6717 0,0.2258 0,0.4515 0,0.6771 0,0.2276 0,0.4551 0,0.6826 0,0.2231 0,0.4462 0.011,0.6692 0,0.2206 0,0.4411 0,0.6616 0,0.2183 0,0.4364 0,0.6546 0,0.2171 0,0.434 0,0.651 0,0.2176 0,0.4352 0,0.6528 0,0.2146 0,0.4293 0,0.644 0,0.212 0,0.4239 0,0.6359 0,0.2095 0,0.4189 0,0.6283 0,0.2099 0,0.4199 0,0.6299 0,0.2113 0,0.4226 0,0.6338 0,0.2109 0,0.4216 0,0.6324 10e-5,0.2112 10e-5,0.4224 10e-5,0.6336 2e-4,0.2114 -2e-4,0.4227 0,0.634 -2e-4,0.2094 0,0.4186 0,0.6279 0,0.209 0,0.418 0,0.6271 0,0.209 0,0.4181 0,0.6271 0,0.2052 0,0.4105 0,0.6156 0,0.197 0,0.3941 0,0.5911 0,0.1861 0,0.3721 0,0.5582 0,0.176 0,0.352 0,0.5281 0,0.1657 0,0.3313 0,0.4971 0,0.1562 0,0.3124 0,0.4687 0,0.1489 0,0.2979 0,0.4469 0,0.1448 0,0.2898 0,0.4346 0,0.1434 0,0.2867 0,0.43 0,0.1391 0,0.2781 0,0.417 0,0.1328 0,0.2655 0,0.3982 0,0.1341 0,0.2682 -3e-4,0.4023 0,0.1278 0,0.2558 0,0.3837 0,0.1218 0,0.2437 0,0.3656 0,0.1179 0,0.2356 0.011,0.3535 0,0.1222 0.011,0.2444 0.015,0.3666 0.011,0.1106 0.012,0.2214 0.018,0.3322 0,0.1023 0.011,0.2035 0.016,0.3052 0,0.095 0.011,0.1895 0.015,0.2841 0,0.098 0.011,0.1951 0.018,0.2926 0.011,0.091 0.012,0.1824 0.016,0.2739 0.011,0.089 0.011,0.1779 0.015,0.2668 0,0.085 0.011,0.1705 0.014,0.2558 0,0.082 0.011,0.1644 0.013,0.2467 0,0.079 0.011,0.1576 0.012,0.2364 0,0.075 0.011,0.1507 0.011,0.226 0,0.072 0.011,0.1424 0.011,0.2137 0,0.066 0.011,0.1312 0.011,0.1967 0,0.061 0.011,0.1209 0.011,0.1813 0,0.056 0,0.1113 0.011,0.167 0,0.051 0,0.1023 0.011,0.1536 0,0.047 0,0.095 0.011,0.1415 0,0.043 0,0.087 0.011,0.1303 0,0.04 0,0.08 0,0.1199 0,0.036 0,0.074 0,0.1103 0,0.034 0,0.068 0,0.1012 0,0.031 0,0.063 0,0.093 0,0.029 0,0.057 0,0.086 0,0.026 0,0.053 0,0.079 0,0.024 0,0.048 0,0.073 0,0.04 0.011,0.08 0.011,0.1198 0.011,0.076 0.026,0.1505 0.048,0.2241 0.035,0.1184 0.099,0.2251 0.1723,0.3272 0.056,0.075 0.1246,0.1396 0.197,0.2008 0.085,0.072 0.1841,0.1257 0.2858,0.1753 0.081,0.037 0.1676,0.065 0.2552,0.088 0.051,0.013 0.1023,0.023 0.1539,0.034 0.058,0.012 0.1183,0.02 0.178,0.027 0.045,0.011 0.089,0.011 0.1344,0.015 0.052,0.011 0.1034,0.011 0.1547,0.014 0.056,0 0.1113,0.011 0.1671,0.012 0.047,0 0.096,0.011 0.1429,0.013 0.056,0 0.113,0.011 0.1696,0.015 0.059,0 0.1194,0.011 0.179,0.014 0.061,0 0.1221,0.011 0.183,0.013 0.057,0 0.1148,0.011 0.1721,0.012 0.053,0 0.1056,0.011 0.1577,0.011 0.042,0 0.082,0.011 0.1244,0.011 0.055,0.011 0.1101,0.011 0.1651,0.015 0.057,0 0.1148,0.011 0.1721,0.014 0.056,0 0.1115,0.011 0.1674,0.013 0.052,0 0.1023,0.011 0.1543,0.011 0.05,0 0.099,0.011 0.1484,0.011 0.048,0 0.098,0.011 0.1462,0.011 0.047,0 0.095,0.011 0.1414,0.011 0.051,0 0.1001,0.011 0.1505,0.011 0.06,0 0.1203,0.011 0.1804,0.011 0.061,0 0.1199,0 0.1798,0.011 0.055,0 0.1104,0 0.1655,0 0.067,0 0.134,0 0.2009,0 0.069,0 0.1385,0 0.2077,0 0.059,0 0.1191,0 0.1787,0 0.055,0 0.1108,0 0.1662,0 0.056,0 0.1115,0 0.1672,0 0.058,0 0.1159,0 0.1737,0 0.056,0 0.1112,0 0.1668,0 0.052,0 0.1034,0 0.1545,0 0.051,0 0.1001,0 0.1504,0 0.051,0 0.1023,0 0.1533,0 0.05,0 0.099,0 0.1491,0 0.042,0 0.084,0 0.1246,0 0.042,0 0.085,0 0.127,0 0.039,0 0.076,0 0.1137,0 0.045,0 0.091,0 0.1365,0.011 0.042,0 0.085,0 0.1267,0.011 0.038,0 0.078,0 0.1167,0.011 0.036,0 0.071,0 0.1078,0.011 0.033,0 0.066,0 0.099,0 0.049,0 0.051,0 0,0 0,0 0.298,-1.8546 0.298,-1.8546 l 0,0 c -0.062,-0.011 -0.1232,-0.014 -0.1853,-0.015 -0.033,0 -0.066,0 -0.099,0 -0.036,0 -0.072,0 -0.1078,0 -0.039,0 -0.078,0 -0.1167,-0.011 -0.042,0 -0.085,0 -0.1267,-0.011 -0.046,0 -0.092,0 -0.1386,-0.011 -0.059,0 -0.1183,-0.011 -0.1776,-0.011 -0.054,0 -0.1078,0 -0.1608,0 -0.054,0 -0.1078,0 -0.1617,0 -0.051,0 -0.1001,0 -0.1508,0 -0.053,0 -0.1056,0 -0.1581,0 -0.052,0 -0.1045,0 -0.1566,0 -0.052,0 -0.1034,0 -0.156,0 -0.056,0 -0.1114,0 -0.1671,0 -0.059,0 -0.1195,0 -0.1791,0 -0.059,0 -0.1181,0 -0.1771,0 -0.057,0 -0.1135,0 -0.1703,0 -0.059,0 -0.1186,0 -0.1779,0 -0.053,0 -0.1045,0 -0.1574,0 -0.05,0 -0.099,0 -0.1481,0 -0.054,0 -0.1089,0 -0.163,0 -0.048,0 -0.098,0 -0.1463,0 -0.045,0 -0.089,0 -0.1341,-0.011 -0.044,0 -0.089,-0.011 -0.1337,-0.011 -0.045,0 -0.089,-0.011 -0.1343,-0.011 -0.046,0 -0.092,-0.011 -0.1391,-0.011 -0.047,0 -0.095,-0.011 -0.1415,-0.011 -0.052,0 -0.1023,-0.011 -0.1537,-0.011 -0.053,0 -0.1056,-0.011 -0.1584,-0.012 -0.051,0 -0.1023,-0.011 -0.1531,-0.013 -0.05,0 -0.099,-0.011 -0.1486,-0.013 -0.061,-0.011 -0.121,-0.012 -0.1817,-0.016 -0.053,0 -0.1056,-0.011 -0.1579,-0.011 -0.056,0 -0.113,-0.011 -0.1696,-0.012 -0.056,0 -0.1127,-0.011 -0.169,-0.012 -0.053,0 -0.1067,-0.011 -0.1592,-0.012 -0.053,0 -0.1056,-0.011 -0.159,-0.014 -0.062,0 -0.1221,-0.011 -0.1832,-0.015 -0.045,0 -0.091,-0.011 -0.1366,-0.011 -0.035,0 -0.07,-0.011 -0.1056,-0.011 -0.031,0 -0.062,-0.011 -0.091,-0.011 -0.043,-0.011 0.011,0 -0.031,0 -0.011,-1e-4 -0.038,-0.011 -0.03,-0.011 0.036,0.011 0.073,0.022 0.1056,0.039 0.062,0.031 0.1215,0.064 0.1727,0.1089 0.042,0.036 0.081,0.075 0.1135,0.119 0.051,0.073 0.096,0.1469 0.1201,0.2305 0.011,0.036 0.02,0.073 0.022,0.1089 0,-0.035 0,0.021 0,-0.011 0,-0.024 0,-0.048 0,-0.074 0,-0.026 0,-0.053 0,-0.079 0,-0.029 0,-0.057 0,-0.086 0,-0.031 0,-0.063 0,-0.093 0,-0.034 0,-0.068 0,-0.1023 0,-0.036 0,-0.074 0,-0.1104 0,-0.04 0,-0.08 0,-0.1199 0,-0.043 0,-0.087 -0.011,-0.1302 0,-0.047 0,-0.095 -0.011,-0.1415 0,-0.052 0,-0.1023 -0.011,-0.1536 0,-0.056 0,-0.1113 -0.011,-0.1669 0,-0.06 0,-0.1209 -0.011,-0.1813 0,-0.066 -0.011,-0.1313 -0.011,-0.1969 0,-0.072 -0.011,-0.1426 -0.011,-0.2138 0,-0.077 -0.011,-0.1537 -0.011,-0.2305 0,-0.08 -0.011,-0.1597 -0.012,-0.2397 0,-0.084 -0.011,-0.168 -0.013,-0.2521 0,-0.087 -0.011,-0.1736 -0.014,-0.2603 0,-0.09 -0.011,-0.1815 -0.015,-0.2723 -0.011,-0.093 -0.011,-0.1873 -0.018,-0.2808 -0.011,-0.09 -0.012,-0.1806 -0.017,-0.271 0,-0.097 -0.011,-0.1927 -0.015,-0.289 0,-0.1012 -0.011,-0.2034 -0.017,-0.3053 -0.011,-0.11 -0.012,-0.2197 -0.018,-0.3295 -0.011,-0.1078 -0.011,-0.2154 -0.014,-0.3231 0,-0.11 -0.011,-0.2195 -0.011,-0.3292 0,-0.1172 0,-0.2345 0,-0.3516 0,-0.1278 0,-0.2555 0,-0.3834 0,-0.1274 0,-0.2549 3e-4,-0.3823 0,-0.1329 0,-0.2658 0,-0.3988 0,-0.139 0,-0.2782 0,-0.4174 0,-0.1436 0,-0.2871 0,-0.4308 0,-0.1452 0,-0.2903 0,-0.4355 0,-0.1491 0,-0.2983 0,-0.4474 0,-0.1564 0,-0.3128 0,-0.4691 0,-0.1659 0,-0.3316 0,-0.4974 0,-0.1761 0,-0.3523 0,-0.5284 0,-0.1863 0,-0.3724 0,-0.5586 0,-0.1973 0,-0.3944 0,-0.5915 0,-0.2056 0,-0.4111 0,-0.6164 0,-0.2096 0,-0.419 0,-0.6285 0,-0.2095 0,-0.4192 0,-0.6287 0,-0.2098 0,-0.4196 0,-0.6294 4e-4,-0.2118 0,-0.4238 0,-0.6355 0,-0.212 1e-4,-0.4238 -10e-5,-0.6358 -1e-4,-0.2114 0,-0.4229 0,-0.6344 0,-0.212 0,-0.424 0,-0.6361 0,-0.2109 0,-0.4218 0,-0.6326 0,-0.2102 0,-0.4204 0,-0.6308 0,-0.2127 0,-0.4254 0,-0.6383 0,-0.2152 0,-0.4303 -0.011,-0.6456 0,-0.2153 0,-0.4306 0,-0.646 0,-0.2178 0,-0.4357 0,-0.6535 0,-0.2191 0,-0.4382 0,-0.6573 0,-0.2214 0,-0.4428 -0.011,-0.6642 0,-0.2237 0,-0.4475 -0.011,-0.6712 0,-0.2243 0,-0.4486 0,-0.6728 0,-0.2268 0,-0.4534 0,-0.6801 0,-0.225 0,-0.45 0,-0.675 0,-0.2222 0,-0.4444 -0.011,-0.6665 0,-0.2207 0,-0.4411 -0.011,-0.6617 0,-0.2193 -0.011,-0.4387 -0.011,-0.658 0,-0.2226 0,-0.4455 -0.011,-0.6681 0,-0.227 0,-0.4538 -0.011,-0.6805 0,-0.2315 0,-0.4632 -0.011,-0.6948 0,-0.2313 -0.011,-0.4625 -0.011,-0.6938 0,-0.2272 0,-0.4544 -0.011,-0.6816 0,-0.2249 0,-0.4499 -0.011,-0.6747 0,-0.2174 -0.011,-0.4348 -0.011,-0.652 0,-0.2133 0,-0.4266 -2e-4,-0.6398 0,-0.215 0,-0.43 0,-0.645 0,-0.2141 0,-0.4282 0,-0.6424 0,-0.2118 0,-0.4235 0,-0.6353 0,-0.2088 0,-0.4178 0.011,-0.6268 0,-0.2062 0.011,-0.4123 0.012,-0.6184 0,-0.2049 0.011,-0.4098 0.018,-0.6146 0.011,-0.2096 0.014,-0.4191 0.022,-0.6286 0.011,-0.2138 0.015,-0.4275 0.023,-0.6414 0.011,-0.2153 0.016,-0.4304 0.025,-0.6458 0.011,-0.2165 0.017,-0.433 0.026,-0.6494 0.011,-0.2182 0.018,-0.4363 0.027,-0.6544 0.011,-0.2172 0.019,-0.4343 0.029,-0.6514 0.011,-0.2186 0.021,-0.4372 0.03,-0.6558 0.011,-0.2182 0.019,-0.4364 0.029,-0.6547 0.011,-0.22 0.02,-0.44 0.031,-0.6599 0.011,-0.2212 0.021,-0.4425 0.032,-0.6637 0.011,-0.2219 0.019,-0.4439 0.03,-0.6658 0.011,-0.2228 0.021,-0.4454 0.031,-0.6682 0.011,-0.228 0.022,-0.4561 0.033,-0.6842 0.011,-0.2358 0.021,-0.4715 0.032,-0.7074 0.011,-0.2426 0.022,-0.4852 0.033,-0.7279 0.011,-0.246 0.023,-0.4922 0.035,-0.7384 0.011,-0.2467 0.022,-0.4934 0.031,-0.7403 0.011,-0.2459 0.016,-0.4918 0.023,-0.7378 0.011,-0.2432 0.014,-0.4862 0.021,-0.7294 0,-0.2398 0.011,-0.4796 0.015,-0.7194 0,-0.2369 0.011,-0.4738 0.011,-0.7107 0,-0.2339 0,-0.4678 0,-0.7017 0,-0.23 0,-0.4598 0,-0.6897 1e-4,-0.2287 0,-0.4573 0,-0.686 1e-4,-0.2284 0,-0.4568 -2e-4,-0.6852 -2e-4,-0.2274 0,-0.4548 0,-0.6821 0,-0.2275 0,-0.4549 0,-0.6823 0,-0.2263 0,-0.4526 0,-0.6789 0,-0.2193 0,-0.4387 0,-0.658 0,-0.2099 0,-0.4199 -0.011,-0.6297 0,-0.1976 -0.011,-0.3952 -0.013,-0.5926 0,-0.1828 -0.011,-0.3654 -0.015,-0.548 0,-0.1702 -0.011,-0.3403 -0.019,-0.5102 -0.011,-0.1618 -0.013,-0.3234 -0.02,-0.485 -0.011,-0.1538 -0.014,-0.3075 -0.023,-0.461 -0.011,-0.1395 -0.015,-0.2789 -0.023,-0.4183 -0.011,-0.1314 -0.015,-0.2627 -0.023,-0.394 -0.011,-0.1295 -0.014,-0.2592 -0.022,-0.3888 -0.011,-0.1278 -0.015,-0.2555 -0.024,-0.3834 -0.011,-0.1225 -0.017,-0.245 -0.023,-0.3676 -0.011,-0.1197 -0.015,-0.2392 -0.021,-0.359 -0.011,-0.1121 -0.014,-0.2242 -0.019,-0.3364 -0.011,-0.1067 -0.012,-0.213 -0.018,-0.3195 0,-0.1001 -0.011,-0.2004 -0.014,-0.3006 0,-0.093 -0.011,-0.1869 -0.011,-0.2804 0,-0.087 0,-0.1734 -0.011,-0.2601 0,-0.075 0,-0.1505 0,-0.2256 -2e-4,-0.067 0,-0.1351 0,-0.2026 0,-0.061 0,-0.1202 0.011,-0.1802 0,-0.056 0,-0.1129 0.011,-0.1693 0,-0.058 0.011,-0.1156 0.012,-0.1734 0,-0.036 0.011,-0.072 0.011,-0.1078 0,-0.03 0.011,-0.061 0.015,-0.09 0,-0.017 0.012,-0.051 0,-0.011 -0.031,0.067 -0.067,0.1307 -0.1194,0.1864 -0.1034,0.1078 -0.2253,0.196 -0.3739,0.2455 -0.1034,0.031 -0.2092,0.055 -0.3192,0.052 -0.079,0 0.011,1e-4 0.025,2e-4 0.025,3e-4 0.052,0 0.078,0 0.028,3e-4 0.056,0 0.085,0 0.031,0 0.06,0 0.091,0 0.033,0 0.066,0 0.099,0.011 0.036,0 0.073,0 0.1078,0.011 0.038,0 0.078,0 0.1174,0.011 0.043,0 0.085,0 0.1275,0.011 0.046,0 0.092,0.011 0.1385,0.011 0.051,0 0.1001,0.011 0.1503,0.011 0.054,0 0.1089,0.011 0.1634,0.011 0.058,0 0.1165,0.011 0.1747,0.011 0.059,0 0.1182,0.011 0.1773,0.011 0.059,0 0.1188,0.011 0.1781,0.011 0.066,0 0.1325,0.011 0.1989,0.011 0.061,0 0.1201,0 0.1801,0.011 0.065,0 0.1297,0.011 0.1945,0.011 0.074,0 0.1472,0.011 0.2208,0.011 0.076,0 0.1513,0 0.2271,0.011 0.075,0 0.1508,0.011 0.2263,0.011 0.081,0 0.1632,0.011 0.245,0.011 0.086,0 0.1719,0.011 0.2579,0.011 0.088,0 0.1765,0.011 0.2647,0.011 0.096,0 0.1907,0.011 0.2861,0.011 0.1105,0 0.2211,0 0.3315,2e-4 0.09,0 0.1813,0 0.272,0 0.079,0 0.1575,0 0.2361,0.011 0.09,0 0.1794,0.011 0.2691,0.013 0.09,0 0.1808,0.011 0.2714,0.011 0.07,0 0.1397,0 0.2095,0 0.065,0 0.13,0 0.1949,0 0,0 -0.024,-1.8747 -0.024,-1.8747 z"
       id="path6467"
       style="color:#000000;display:inline;overflow:visible;visibility:visible;fill:#0169c9;fill-opacity:1;fill-rule:nonzero;stroke:#636466;stroke-width:0.09941137;stroke-linecap:butt;stroke-linejoin:round;stroke-miterlimit:4;stroke-dasharray:none;stroke-dashoffset:0;stroke-opacity:1;marker:none;enable-background:accumulate"
       inkscape:connector-curvature="0" />
    <text
       sodipodi:linespacing="100%"
       id="text6482"
       y="2433.252"
       x="3486.761"
       style="color:#000000;font-style:normal;font-variant:normal;font-weight:900;font-stretch:normal;font-size:15.54747677px;line-height:100%;font-family:'Comic Sans MS';-inkscape-font-specification:'Comic Sans MS';text-indent:0;text-align:start;text-decoration:none;text-decoration-line:none;letter-spacing:normal;word-spacing:normal;text-transform:none;direction:ltr;block-progression:tb;writing-mode:lr-tb;text-anchor:start;display:inline;overflow:visible;visibility:visible;fill:#fd3301;fill-opacity:1;fill-rule:nonzero;stroke:none;stroke-width:1.10000002;marker:none;enable-background:accumulate"
       xml:space="preserve"><tspan
         y="2433.252"
         x="3486.761"
         id="tspan6484"
         sodipodi:role="line">0×1 - (-2)×1</tspan></text>
    <text
       xml:space="preserve"
       style="color:#000000;font-style:normal;font-variant:normal;font-weight:900;font-stretch:normal;font-size:15.54747677px;line-height:100%;font-family:'Comic Sans MS';-inkscape-font-specification:'Comic Sans MS';text-indent:0;text-align:start;text-decoration:none;text-decoration-line:none;letter-spacing:normal;word-spacing:normal;text-transform:none;direction:ltr;block-progression:tb;writing-mode:lr-tb;text-anchor:start;display:inline;overflow:visible;visibility:visible;fill:#fd3301;fill-opacity:1;fill-rule:nonzero;stroke:none;stroke-width:1.10000002;marker:none;enable-background:accumulate"
       x="3618.1812"
       y="2432.9138"
       id="text6486"
       sodipodi:linespacing="100%"><tspan
         sodipodi:role="line"
         id="tspan6488"
         x="3618.1812"
         y="2432.9138">2×1 - (-2)×0</tspan></text>
    <text
       sodipodi:linespacing="100%"
       id="text6490"
       y="2432.9138"
       x="3751.0833"
       style="color:#000000;font-style:normal;font-variant:normal;font-weight:900;font-stretch:normal;font-size:15.54747677px;line-height:100%;font-family:'Comic Sans MS';-inkscape-font-specification:'Comic Sans MS';text-indent:0;text-align:start;text-decoration:none;text-decoration-line:none;letter-spacing:normal;word-spacing:normal;text-transform:none;direction:ltr;block-progression:tb;writing-mode:lr-tb;text-anchor:start;display:inline;overflow:visible;visibility:visible;fill:#fd3301;fill-opacity:1;fill-rule:nonzero;stroke:none;stroke-width:1.10000002;marker:none;enable-background:accumulate"
       xml:space="preserve"><tspan
         y="2432.9138"
         x="3751.0833"
         id="tspan6492"
         sodipodi:role="line">2×1 - 0×0</tspan></text>
    <text
       xml:space="preserve"
       style="color:#000000;font-style:normal;font-variant:normal;font-weight:900;font-stretch:normal;font-size:15.54747677px;line-height:100%;font-family:'Comic Sans MS';-inkscape-font-specification:'Comic Sans MS';text-indent:0;text-align:start;text-decoration:none;text-decoration-line:none;letter-spacing:normal;word-spacing:normal;text-transform:none;direction:ltr;block-progression:tb;writing-mode:lr-tb;text-anchor:start;display:inline;overflow:visible;visibility:visible;fill:#fd3301;fill-opacity:1;fill-rule:nonzero;stroke:none;stroke-width:1.10000002;marker:none;enable-background:accumulate"
       x="3485.7341"
       y="2458.9199"
       id="text6494"
       sodipodi:linespacing="100%"><tspan
         sodipodi:role="line"
         id="tspan6496"
         x="3485.7341"
         y="2458.9199">0×1 - 2×1</tspan></text>
    <text
       sodipodi:linespacing="100%"
       id="text6498"
       y="2458.5818"
       x="3617.1543"
       style="color:#000000;font-style:normal;font-variant:normal;font-weight:900;font-stretch:normal;font-size:15.54747677px;line-height:100%;font-family:'Comic Sans MS';-inkscape-font-specification:'Comic Sans MS';text-indent:0;text-align:start;text-decoration:none;text-decoration-line:none;letter-spacing:normal;word-spacing:normal;text-transform:none;direction:ltr;block-progression:tb;writing-mode:lr-tb;text-anchor:start;display:inline;overflow:visible;visibility:visible;fill:#fd3301;fill-opacity:1;fill-rule:nonzero;stroke:none;stroke-width:1.10000002;marker:none;enable-background:accumulate"
       xml:space="preserve"><tspan
         y="2458.5818"
         x="3617.1543"
         id="tspan6500"
         sodipodi:role="line">3×1 - 2×0</tspan></text>
    <text
       xml:space="preserve"
       style="color:#000000;font-style:normal;font-variant:normal;font-weight:900;font-stretch:normal;font-size:15.54747677px;line-height:100%;font-family:'Comic Sans MS';-inkscape-font-specification:'Comic Sans MS';text-indent:0;text-align:start;text-decoration:none;text-decoration-line:none;letter-spacing:normal;word-spacing:normal;text-transform:none;direction:ltr;block-progression:tb;writing-mode:lr-tb;text-anchor:start;display:inline;overflow:visible;visibility:visible;fill:#fd3301;fill-opacity:1;fill-rule:nonzero;stroke:none;stroke-width:1.10000002;marker:none;enable-background:accumulate"
       x="3750.0566"
       y="2458.5818"
       id="text6502"
       sodipodi:linespacing="100%"><tspan
         sodipodi:role="line"
         id="tspan6504"
         x="3750.0566"
         y="2458.5818">3×1 - 0×0</tspan></text>
    <text
       sodipodi:linespacing="100%"
       id="text6506"
       y="2484.3386"
       x="3486.3357"
       style="color:#000000;font-style:normal;font-variant:normal;font-weight:900;font-stretch:normal;font-size:15.54747677px;line-height:100%;font-family:'Comic Sans MS';-inkscape-font-specification:'Comic Sans MS';text-indent:0;text-align:start;text-decoration:none;text-decoration-line:none;letter-spacing:normal;word-spacing:normal;text-transform:none;direction:ltr;block-progression:tb;writing-mode:lr-tb;text-anchor:start;display:inline;overflow:visible;visibility:visible;fill:#fd3301;fill-opacity:1;fill-rule:nonzero;stroke:none;stroke-width:1.10000002;marker:none;enable-background:accumulate"
       xml:space="preserve"><tspan
         y="2484.3386"
         x="3486.3357"
         id="tspan6508"
         sodipodi:role="line">0×(-2) - 2×0</tspan></text>
    <text
       xml:space="preserve"
       style="color:#000000;font-style:normal;font-variant:normal;font-weight:900;font-stretch:normal;font-size:15.54747677px;line-height:100%;font-family:'Comic Sans MS';-inkscape-font-specification:'Comic Sans MS';text-indent:0;text-align:start;text-decoration:none;text-decoration-line:none;letter-spacing:normal;word-spacing:normal;text-transform:none;direction:ltr;block-progression:tb;writing-mode:lr-tb;text-anchor:start;display:inline;overflow:visible;visibility:visible;fill:#fd3301;fill-opacity:1;fill-rule:nonzero;stroke:none;stroke-width:1.10000002;marker:none;enable-background:accumulate"
       x="3617.7559"
       y="2484.0007"
       id="text6510"
       sodipodi:linespacing="100%"><tspan
         sodipodi:role="line"
         id="tspan6512"
         x="3617.7559"
         y="2484.0007">3×(-2) - 2×2</tspan></text>
    <text
       sodipodi:linespacing="100%"
       id="text6514"
       y="2484.0007"
       x="3750.658"
       style="color:#000000;font-style:normal;font-variant:normal;font-weight:900;font-stretch:normal;font-size:15.54747677px;line-height:100%;font-family:'Comic Sans MS';-inkscape-font-specification:'Comic Sans MS';text-indent:0;text-align:start;text-decoration:none;text-decoration-line:none;letter-spacing:normal;word-spacing:normal;text-transform:none;direction:ltr;block-progression:tb;writing-mode:lr-tb;text-anchor:start;display:inline;overflow:visible;visibility:visible;fill:#fd3301;fill-opacity:1;fill-rule:nonzero;stroke:none;stroke-width:1.10000002;marker:none;enable-background:accumulate"
       xml:space="preserve"><tspan
         y="2484.0007"
         x="3750.658"
         id="tspan6516"
         sodipodi:role="line">3×0 - 0×2</tspan></text>
    <path
       style="color:#000000;display:inline;overflow:visible;visibility:visible;fill:#0169c9;fill-opacity:1;fill-rule:nonzero;stroke:#636466;stroke-width:0.09941137;stroke-linecap:butt;stroke-linejoin:round;stroke-miterlimit:4;stroke-dasharray:none;stroke-dashoffset:0;stroke-opacity:1;marker:none;enable-background:accumulate"
       id="path6593"
       d="m 4001.9827,2420.0218 c 0.061,-2e-4 0.1215,0 0.1823,0 0.059,-2e-4 0.1185,0 0.1777,0 0.063,-2e-4 0.1264,-3e-4 0.1896,0 0.088,0 0.1754,-0.011 0.2631,-0.011 0.1126,0 0.2255,0 0.3382,0 0.1045,-2e-4 0.2095,0 0.3141,0 0.085,0 0.169,0 0.2535,0 0.091,-2e-4 0.1833,0 0.2749,0 0.089,-2e-4 0.1772,0 0.266,0 0.087,-3e-4 0.1729,0 0.2594,0 0.081,-2e-4 0.1634,0 0.2453,0 0.076,-2e-4 0.151,0 0.2265,0 0.068,-2e-4 0.137,-3e-4 0.2056,0 0.066,0 0.1326,0 0.1991,-0.011 0.065,0 0.1294,0 0.1942,-0.011 0.061,0 0.1216,0 0.1823,-0.011 0.053,0 0.1045,0 0.1571,-0.011 0.061,0 0.1206,-0.011 0.181,-0.011 0.062,0 0.1234,-0.011 0.185,-0.011 0.059,0 0.1188,0 0.1781,-0.011 0.055,0 0.1089,0 0.1635,-0.011 0.051,0 0.1001,0 0.1506,-0.011 0.046,0 0.092,0 0.1385,-0.011 0.043,0 0.085,0 0.1276,-0.011 0.039,0 0.078,0 0.1173,0 0.036,-2e-4 0.073,0 0.1078,0 0.033,-2e-4 0.066,0 0.099,0 0.031,0 0.062,0 0.091,0 0.027,-2e-4 0.056,0 0.085,0 0.025,-2e-4 0.052,0 0.078,0 0.04,0 0.078,0 0.1175,0 0.1557,0 0.3052,0.031 0.4505,0.078 0.1975,0.07 0.3553,0.1933 0.4893,0.3401 0.095,0.11 0.1592,0.2368 0.2094,0.3681 0.03,0.079 0.048,0.1602 0.066,0.2417 0.015,0.068 0.025,0.1371 0.035,0.2059 0.011,0.079 0.018,0.1579 0.023,0.237 0,0.066 0.011,0.1321 0.012,0.1981 0,0.069 0.011,0.1397 0.011,0.2095 0,0.074 0,0.1475 0,0.2214 0,0.08 0,0.1596 0,0.2393 0,0.086 0,0.1706 -0.011,0.256 0,0.089 0,0.1792 -0.011,0.2688 0,0.1001 -0.011,0.2003 -0.013,0.3004 0,0.1067 -0.011,0.2123 -0.018,0.3184 -0.011,0.1089 -0.014,0.2181 -0.021,0.3271 -0.011,0.115 -0.015,0.2299 -0.023,0.3448 -0.011,0.1205 -0.016,0.2409 -0.025,0.3613 -0.011,0.1258 -0.018,0.2517 -0.028,0.3774 -0.011,0.1242 -0.019,0.2483 -0.028,0.3724 -0.011,0.1256 -0.018,0.2512 -0.025,0.3768 -0.011,0.1319 -0.019,0.2638 -0.026,0.3957 -0.011,0.1402 -0.019,0.2803 -0.027,0.4204 -0.011,0.1482 -0.019,0.2965 -0.026,0.4447 -0.011,0.1575 -0.017,0.3151 -0.025,0.4725 -0.011,0.166 -0.015,0.332 -0.023,0.498 -0.011,0.1787 -0.014,0.3575 -0.021,0.5363 -0.011,0.1919 -0.013,0.3837 -0.019,0.5757 0,0.2054 -0.011,0.4109 -0.012,0.6164 0,0.2178 -0.011,0.4357 -0.011,0.6535 0,0.2252 -0.011,0.4505 -0.011,0.6756 0,0.2266 -0.011,0.4533 -0.011,0.6799 0,0.2266 0,0.4533 -0.011,0.6799 0,0.2277 0,0.4556 -0.011,0.6831 0,0.2282 0,0.4562 -0.011,0.6842 0,0.2294 0,0.4586 -0.011,0.688 0,0.2303 0,0.4608 0,0.6912 0,0.2327 3e-4,0.4654 0,0.6981 0,0.2358 0,0.4717 0.011,0.7076 0,0.2398 0.011,0.4796 0.013,0.7194 0,0.2419 0.011,0.4837 0.015,0.7256 0.011,0.2422 0.014,0.4844 0.023,0.7266 0.011,0.2447 0.018,0.4893 0.028,0.734 0.011,0.2437 0.018,0.4876 0.026,0.7313 0.011,0.2352 0.015,0.4703 0.024,0.7054 0.011,0.2277 0.017,0.4553 0.025,0.6828 0.011,0.2241 0.017,0.4482 0.024,0.6724 0.011,0.2211 0.014,0.4422 0.023,0.6634 0.011,0.2207 0.016,0.4414 0.025,0.6623 0.011,0.2214 0.015,0.4428 0.024,0.6644 0.011,0.2195 0.015,0.4392 0.022,0.6589 0.011,0.2167 0.015,0.4335 0.023,0.6503 0.011,0.2187 0.015,0.4374 0.022,0.656 0.011,0.2196 0.014,0.4392 0.021,0.6588 0.011,0.2177 0.013,0.4353 0.02,0.6531 0.011,0.2165 0.012,0.4329 0.019,0.6494 0.011,0.2148 0.011,0.4295 0.016,0.6442 0.011,0.2103 0.011,0.4208 0.015,0.6312 0.011,0.2101 0.011,0.4203 0.012,0.6305 0,0.2112 0,0.4226 0.011,0.6339 0,0.2127 0,0.4253 0,0.6378 0,0.2144 -10e-5,0.4288 0,0.6431 0,0.2146 0,0.4292 0,0.6437 0,0.2147 0,0.4293 0,0.6439 0,0.2188 0,0.4375 -0.011,0.6563 0,0.222 -0.011,0.4441 -0.013,0.666 0,0.2239 -0.011,0.4476 -0.015,0.6714 0,0.228 -0.011,0.456 -0.014,0.6841 -0.011,0.2318 -0.011,0.4637 -0.017,0.6956 0,0.2306 -0.011,0.4611 -0.015,0.6917 0,0.2258 -0.011,0.4518 -0.014,0.6778 0,0.2218 -0.011,0.4435 -0.013,0.6654 0,0.2215 -0.011,0.4431 -0.015,0.6645 0,0.2193 -0.011,0.4387 -0.014,0.658 0,0.221 -0.011,0.4419 -0.013,0.6628 0,0.2239 -0.011,0.4478 -0.012,0.6716 0,0.2258 -0.011,0.4514 -0.011,0.6771 0,0.2275 -0.011,0.4551 -0.012,0.6824 0,0.2231 -0.011,0.4462 -0.013,0.6692 0,0.2205 -0.011,0.4409 -0.012,0.6615 0,0.2182 -0.011,0.4364 -0.011,0.6545 0,0.217 -0.011,0.4339 -0.011,0.651 0,0.2176 -0.011,0.435 -0.011,0.6525 0,0.2147 -0.011,0.4293 -0.012,0.644 0,0.212 -0.011,0.424 -0.011,0.636 0,0.2093 -0.011,0.4186 -0.011,0.6282 0,0.2098 -0.011,0.4198 -0.011,0.6298 0,0.2112 0,0.4225 -0.011,0.6337 0,0.2108 0,0.4216 -0.011,0.6323 0,0.2112 0,0.4224 -0.011,0.6336 0,0.2114 0,0.4226 -0.011,0.6341 0,0.2092 0,0.4185 -0.011,0.6277 0,0.2091 0,0.4181 0,0.6271 0,0.2091 0,0.4181 0,0.6271 0,0.2053 0,0.4106 0,0.6157 0,0.197 0,0.394 0,0.591 0,0.1861 0,0.3722 0,0.5582 0,0.176 0,0.352 0,0.5281 0,0.1657 0,0.3314 0,0.4971 0,0.1562 0,0.3125 0,0.4687 0,0.1489 0,0.298 0,0.4469 0,0.1449 0,0.2898 0,0.4346 0,0.1435 0,0.2868 0,0.4301 0,0.139 0,0.278 0,0.417 -2e-4,0.1327 0,0.2655 0,0.3982 10e-5,0.134 0,0.2681 0,0.4022 0,0.1279 0,0.2558 -0.011,0.3837 0,0.1218 0,0.2437 -0.011,0.3656 0,0.1178 -0.011,0.2355 -0.011,0.3532 0,0.1224 -0.012,0.2445 -0.02,0.3666 -0.011,0.1106 -0.014,0.2213 -0.021,0.3319 -0.011,0.1012 -0.013,0.2034 -0.02,0.3052 -0.011,0.095 -0.012,0.1892 -0.018,0.2838 -0.011,0.098 -0.013,0.195 -0.021,0.2924 -0.011,0.091 -0.013,0.1823 -0.02,0.2736 -0.011,0.089 -0.012,0.1779 -0.019,0.2668 -0.011,0.085 -0.011,0.1704 -0.016,0.2555 0,0.082 -0.011,0.1645 -0.015,0.2466 0,0.079 -0.011,0.1576 -0.014,0.2363 0,0.075 -0.011,0.1506 -0.013,0.226 0,0.072 -0.011,0.1423 -0.012,0.2134 0,0.066 -0.011,0.1313 -0.011,0.1967 0,0.061 -0.011,0.1208 -0.011,0.1812 0,0.056 -0.011,0.1112 -0.011,0.1669 0,0.052 -0.011,0.1023 -0.011,0.1535 0,0.047 0,0.095 -0.011,0.1415 0,0.043 0,0.087 -0.011,0.1301 0,0.04 0,0.08 -0.011,0.1199 0,0.036 0,0.074 -0.011,0.1103 0,0.034 0,0.068 -0.011,0.1012 0,0.031 0,0.063 0,0.093 0,0.029 0,0.057 0,0.086 0,0.026 0,0.053 0,0.079 0,0.024 0,0.048 0,0.073 0,0.04 -0.011,0.08 -0.011,0.1197 -0.011,0.076 -0.028,0.1502 -0.051,0.2236 -0.036,0.118 -0.1012,0.2241 -0.1756,0.3253 -0.057,0.074 -0.126,0.1384 -0.1991,0.1988 -0.086,0.072 -0.1854,0.1239 -0.2875,0.1724 -0.081,0.036 -0.1682,0.064 -0.256,0.086 -0.051,0.012 -0.1023,0.023 -0.1542,0.032 -0.059,0.011 -0.1187,0.019 -0.1784,0.025 -0.045,0 -0.089,0.011 -0.1344,0.014 -0.052,0 -0.1034,0.011 -0.155,0.013 -0.056,0 -0.1115,0.011 -0.1672,0.011 -0.047,0 -0.096,0.011 -0.1429,0.011 -0.057,0 -0.1132,0.011 -0.1699,0.013 -0.059,0 -0.1194,0.011 -0.1791,0.013 -0.061,0 -0.1221,0.011 -0.1832,0.011 -0.057,0 -0.1147,0.011 -0.172,0.011 -0.053,0 -0.1056,0.011 -0.158,0.011 -0.042,0 -0.082,0.011 -0.1245,0.011 -0.055,0 -0.1102,0.011 -0.1653,0.013 -0.057,0 -0.1148,0.011 -0.1721,0.013 -0.056,0 -0.1116,0.011 -0.1675,0.011 -0.052,0 -0.1034,0.011 -0.1545,0.011 -0.05,0 -0.099,0.011 -0.1486,0.011 -0.048,0 -0.098,0.011 -0.1462,0.011 -0.047,0 -0.095,0 -0.1414,0.011 -0.051,0 -0.1001,0 -0.1507,0.011 -0.061,0 -0.1204,0 -0.1805,0.011 -0.059,1e-4 -0.1199,2e-4 -0.1798,0 -0.055,1e-4 -0.1104,1e-4 -0.1655,2e-4 -0.067,1e-4 -0.134,2e-4 -0.2009,3e-4 -0.069,1e-4 -0.1385,0 -0.2077,0 -0.059,0 -0.1191,-0.011 -0.1786,-0.011 -0.055,0 -0.1108,0 -0.1662,-0.011 -0.056,0 -0.1114,0 -0.1671,-0.011 -0.058,0 -0.1158,0 -0.1737,-0.011 -0.055,10e-5 -0.1112,0 -0.1667,-0.011 -0.052,0 -0.1034,0 -0.1546,0 -0.051,0 -0.1001,0 -0.1503,0 -0.051,0 -0.1023,0 -0.1533,0 -0.05,0 -0.099,10e-5 -0.149,0 -0.042,0 -0.082,0 -0.1247,0 -0.042,0 -0.085,10e-5 -0.1269,10e-5 -0.037,2e-4 -0.076,0 -0.1138,0 -0.045,0 -0.091,0 -0.1366,0 -0.042,2e-4 -0.085,0 -0.1267,0 -0.039,2e-4 -0.078,0 -0.1167,0 -0.036,2e-4 -0.072,0 -0.1078,0 -0.033,0 -0.066,0 -0.099,0 -0.05,2e-4 -0.051,0 0,0 0,0 -0.279,-1.8574 -0.279,-1.8574 l 0,0 c 0.062,-0.011 0.1233,-0.013 0.1855,-0.014 0.033,0 0.066,0 0.099,0 0.036,0 0.072,0 0.1078,0 0.039,-10e-5 0.078,0 0.1167,0 0.042,-10e-5 0.085,0 0.1268,0 0.046,0 0.092,0 0.1386,-0.011 0.059,0 0.1184,0 0.1777,-0.011 0.054,-10e-5 0.1067,-10e-5 0.1608,-2e-4 0.054,-1e-4 0.1078,0 0.1616,0 0.051,-1e-4 0.1001,-1e-4 0.1508,0 0.053,-1e-4 0.1056,0 0.1581,0 0.053,-1e-4 0.1045,0 0.1565,0 0.052,-1e-4 0.1045,0 0.156,0 0.056,-1e-4 0.1114,0 0.1671,0.011 0.059,0 0.1193,0 0.1791,0.011 0.059,0 0.118,0 0.1769,0.011 0.057,0 0.1136,0.011 0.1703,0.011 0.059,0 0.1186,0 0.1779,0.011 0.053,0 0.1045,0 0.1574,0 0.05,-10e-5 0.099,-3e-4 0.1481,-3e-4 0.054,-1e-4 0.1089,-2e-4 0.163,-3e-4 0.048,0 0.098,0 0.1463,-2e-4 0.045,0 0.089,0 0.1342,0 0.044,0 0.089,0 0.1336,-0.011 0.045,0 0.089,0 0.1345,-0.011 0.046,0 0.092,0 0.1391,-0.011 0.047,0 0.095,0 0.1417,-0.011 0.052,0 0.1023,-0.011 0.1538,-0.011 0.053,0 0.1056,-0.011 0.1585,-0.011 0.051,0 0.1023,-0.011 0.1532,-0.011 0.049,0 0.099,-0.011 0.1487,-0.012 0.061,0 0.1212,-0.011 0.182,-0.014 0.053,0 0.1056,-0.011 0.1578,-0.011 0.056,0 0.1132,-0.011 0.1697,-0.011 0.056,0 0.1129,-0.011 0.1693,-0.011 0.053,0 0.1067,-0.011 0.1592,-0.011 0.053,0 0.1067,-0.011 0.1592,-0.013 0.062,0 0.1222,-0.011 0.1835,-0.013 0.045,0 0.091,-0.011 0.1366,-0.011 0.035,0 0.07,0 0.1056,-0.011 0.031,0 0.062,-0.011 0.092,-0.011 0.043,0 -0.011,0 0.031,0 0.011,0 0.039,-0.011 0.03,-0.011 -0.036,0.011 -0.073,0.022 -0.1067,0.039 -0.062,0.03 -0.1223,0.063 -0.1738,0.1067 -0.043,0.035 -0.082,0.075 -0.1149,0.1178 -0.052,0.071 -0.098,0.1459 -0.1224,0.2292 -0.011,0.036 -0.02,0.072 -0.023,0.1089 0,-0.035 0,0.022 0,-0.011 0,-0.024 0,-0.048 0,-0.073 0,-0.026 0,-0.053 0,-0.079 0,-0.029 0,-0.057 0,-0.086 0,-0.031 0,-0.063 0,-0.093 0,-0.034 0,-0.068 0.011,-0.1012 0,-0.036 0,-0.074 0.011,-0.1103 0,-0.04 0,-0.08 0.011,-0.1198 0,-0.044 0,-0.087 0.011,-0.1302 0,-0.047 0.011,-0.095 0.011,-0.1414 0,-0.052 0.011,-0.1023 0.011,-0.1535 0,-0.056 0.011,-0.1112 0.011,-0.1669 0,-0.061 0.011,-0.1208 0.011,-0.1812 0,-0.066 0.011,-0.1312 0.011,-0.1968 0,-0.072 0.011,-0.1425 0.012,-0.2137 0,-0.077 0.011,-0.1535 0.013,-0.2302 0,-0.08 0.011,-0.1597 0.014,-0.2396 0,-0.084 0.011,-0.1681 0.015,-0.252 0.011,-0.087 0.011,-0.1735 0.017,-0.2602 0.011,-0.09 0.012,-0.1815 0.019,-0.2721 0.011,-0.093 0.013,-0.1872 0.021,-0.2806 0.011,-0.09 0.013,-0.1805 0.019,-0.2708 0.011,-0.097 0.012,-0.1925 0.019,-0.2888 0.011,-0.1023 0.013,-0.2034 0.02,-0.3051 0.011,-0.11 0.014,-0.2196 0.021,-0.3295 0.011,-0.1078 0.013,-0.2151 0.018,-0.3228 0,-0.11 0.011,-0.2194 0.011,-0.3291 0,-0.1172 0,-0.2344 0.011,-0.3516 0,-0.1277 0,-0.2555 0.011,-0.3833 0,-0.1274 0,-0.2549 0,-0.3824 2e-4,-0.1329 0,-0.2658 0,-0.3986 2e-4,-0.1392 0,-0.2783 0,-0.4175 0,-0.1435 0,-0.2872 0,-0.4308 0,-0.1452 0,-0.2904 0,-0.4356 0,-0.149 0,-0.2982 0,-0.4473 0,-0.1564 0,-0.3128 0,-0.4692 0,-0.1657 0,-0.3315 0,-0.4973 0,-0.1762 0,-0.3524 0,-0.5285 0,-0.1863 0,-0.3724 0,-0.5586 0,-0.1971 0,-0.3944 0,-0.5915 0,-0.2055 0,-0.4109 0,-0.6164 0,-0.2095 0,-0.4189 0,-0.6283 0,-0.2097 0,-0.4193 0,-0.6288 0,-0.2098 0,-0.4197 0,-0.6294 0,-0.2118 0,-0.4236 0.011,-0.6355 0,-0.212 0,-0.4238 0.011,-0.6357 0,-0.2114 0,-0.4228 0.011,-0.6344 0,-0.2119 0.011,-0.424 0.011,-0.636 0,-0.2108 0.011,-0.4217 0.011,-0.6326 0,-0.2102 0.011,-0.4204 0.011,-0.6306 0,-0.2128 0.011,-0.4255 0.011,-0.6383 0,-0.2151 0.011,-0.4303 0.012,-0.6454 0,-0.2154 0.011,-0.4307 0.011,-0.646 0,-0.2178 0.011,-0.4356 0.011,-0.6536 0,-0.219 0.011,-0.438 0.011,-0.6571 0,-0.2213 0.011,-0.4427 0.012,-0.6641 0,-0.2237 0.011,-0.4474 0.014,-0.6711 0,-0.2243 0.011,-0.4486 0.012,-0.6728 0,-0.2266 0.011,-0.4532 0.011,-0.6798 0,-0.2251 0.011,-0.4501 0.012,-0.6751 0,-0.2221 0.011,-0.4443 0.013,-0.6664 0,-0.2205 0.011,-0.441 0.014,-0.6615 0,-0.2193 0.011,-0.4386 0.015,-0.6579 0,-0.2227 0.011,-0.4454 0.013,-0.6681 0,-0.2268 0.011,-0.4536 0.014,-0.6803 0,-0.2316 0.011,-0.463 0.015,-0.6947 0.011,-0.2312 0.011,-0.4624 0.018,-0.6936 0,-0.2272 0.011,-0.4543 0.013,-0.6816 0,-0.2248 0.011,-0.4497 0.015,-0.6746 0,-0.2173 0.011,-0.4345 0.013,-0.6519 0,-0.2132 0.011,-0.4265 0.011,-0.6396 0,-0.2151 0,-0.43 0,-0.6451 0,-0.214 0,-0.4282 0,-0.6424 0,-0.2117 0,-0.4235 0,-0.6352 0,-0.2089 1e-4,-0.4179 0,-0.627 0,-0.2062 0,-0.4123 -0.011,-0.6183 0,-0.2051 -0.011,-0.41 -0.012,-0.6149 0,-0.2096 -0.011,-0.4192 -0.015,-0.6288 0,-0.2138 -0.011,-0.4277 -0.016,-0.6415 -0.011,-0.2154 -0.012,-0.4307 -0.019,-0.646 -0.011,-0.2166 -0.013,-0.4332 -0.019,-0.6498 -0.011,-0.2183 -0.014,-0.4364 -0.021,-0.6546 -0.011,-0.2173 -0.015,-0.4345 -0.022,-0.6517 -0.011,-0.2186 -0.015,-0.4373 -0.023,-0.656 -0.011,-0.2182 -0.014,-0.4367 -0.022,-0.6549 -0.011,-0.2202 -0.015,-0.4402 -0.024,-0.6602 -0.011,-0.2213 -0.016,-0.4427 -0.025,-0.664 -0.011,-0.222 -0.015,-0.4441 -0.023,-0.6661 -0.011,-0.2228 -0.015,-0.4456 -0.024,-0.6686 -0.011,-0.228 -0.017,-0.4562 -0.026,-0.6844 -0.011,-0.2358 -0.015,-0.4718 -0.024,-0.7077 -0.011,-0.2427 -0.016,-0.4853 -0.025,-0.7281 -0.011,-0.2463 -0.019,-0.4926 -0.028,-0.7389 -0.011,-0.2467 -0.018,-0.4935 -0.023,-0.7405 -0.011,-0.246 -0.011,-0.4919 -0.017,-0.738 0,-0.2432 -0.011,-0.4863 -0.013,-0.7295 0,-0.2398 -0.011,-0.4797 -0.011,-0.7195 0,-0.237 0,-0.4739 0,-0.7108 0,-0.2339 0,-0.4679 0,-0.7017 0,-0.2299 0,-0.4598 0.011,-0.6897 0,-0.2286 0,-0.4573 0.011,-0.686 0,-0.2285 0,-0.4568 0.011,-0.6852 0,-0.2273 0,-0.4546 0.011,-0.6821 0,-0.2274 0.011,-0.4547 0.011,-0.6821 0,-0.2264 0.011,-0.4525 0.011,-0.6788 0,-0.2193 0.011,-0.4387 0.011,-0.658 0,-0.2099 0.011,-0.4198 0.013,-0.6297 0,-0.1974 0.012,-0.395 0.019,-0.5924 0.011,-0.1826 0.013,-0.3652 0.021,-0.5478 0.011,-0.17 0.015,-0.34 0.023,-0.51 0.011,-0.1617 0.016,-0.3233 0.025,-0.4848 0.011,-0.1536 0.018,-0.3072 0.028,-0.4606 0.011,-0.1394 0.019,-0.2787 0.028,-0.4181 0.011,-0.1313 0.018,-0.2625 0.026,-0.3937 0.011,-0.1295 0.017,-0.2591 0.025,-0.3886 0.011,-0.1278 0.019,-0.2554 0.027,-0.3831 0.011,-0.1224 0.02,-0.2448 0.028,-0.3674 0.011,-0.1196 0.018,-0.239 0.025,-0.3587 0.011,-0.1121 0.015,-0.224 0.022,-0.3362 0.011,-0.1067 0.014,-0.2128 0.021,-0.3193 0.011,-0.1001 0.012,-0.2002 0.016,-0.3004 0,-0.093 0.011,-0.1868 0.012,-0.2803 0,-0.087 0.011,-0.1734 0.011,-0.2601 0,-0.075 0,-0.1504 0.011,-0.2256 0,-0.067 0,-0.135 0,-0.2025 0,-0.061 0,-0.1202 0,-0.1802 0,-0.056 0,-0.113 -0.011,-0.1694 0,-0.058 -0.011,-0.1157 -0.011,-0.1736 0,-0.036 -0.011,-0.072 -0.011,-0.1078 0,-0.03 -0.011,-0.061 -0.014,-0.09 0,-0.017 -0.012,-0.051 0,-0.011 0.03,0.067 0.066,0.1313 0.1174,0.1874 0.1023,0.1089 0.2232,0.1985 0.3713,0.2495 0.1034,0.032 0.2086,0.057 0.3187,0.055 0.079,0 -0.011,0 -0.025,0 -0.025,1e-4 -0.052,0 -0.078,0 -0.029,1e-4 -0.056,0 -0.085,0 -0.031,1e-4 -0.061,0 -0.091,0 -0.033,0 -0.066,0 -0.099,0 -0.036,1e-4 -0.073,0 -0.1078,0 -0.04,0 -0.078,0 -0.1175,0 -0.043,0 -0.085,0 -0.1276,0.011 -0.046,0 -0.092,0 -0.1385,0.011 -0.051,0 -0.1001,0 -0.1504,0.011 -0.054,0 -0.1089,0 -0.1635,0.011 -0.058,0 -0.1165,0 -0.1748,0.011 -0.059,0 -0.1182,0 -0.1774,0.011 -0.059,0 -0.1188,0 -0.1782,0.011 -0.066,0 -0.1326,0.011 -0.1989,0.011 -0.061,0 -0.1201,0 -0.1802,0.011 -0.065,0 -0.1298,0 -0.1946,0.011 -0.074,0 -0.1473,0 -0.2209,0.011 -0.076,10e-5 -0.1514,0 -0.2271,0 -0.076,10e-5 -0.1509,0 -0.2264,0 -0.081,10e-5 -0.1633,0 -0.245,0 -0.086,10e-5 -0.172,0 -0.258,0 -0.088,10e-5 -0.1766,0 -0.2648,0 -0.096,0 -0.1907,0 -0.2861,0 -0.1105,10e-5 -0.2211,3e-4 -0.3315,0 -0.09,0 -0.1812,-0.011 -0.272,0 -0.079,2e-4 -0.1575,3e-4 -0.2362,0 -0.089,0 -0.1794,0.011 -0.2692,0.011 -0.09,0 -0.181,0.011 -0.2714,0.011 -0.07,1e-4 -0.1398,2e-4 -0.2095,0 -0.065,0 -0.13,0 -0.1949,0 0,0 0.043,-1.8744 0.043,-1.8744 z"
       inkscape:connector-curvature="0" />
    <text
       xml:space="preserve"
       style="color:#000000;font-style:normal;font-variant:normal;font-weight:900;font-stretch:normal;font-size:15.54747677px;line-height:100%;font-family:'Comic Sans MS';-inkscape-font-specification:'Comic Sans MS';text-indent:0;text-align:start;text-decoration:none;text-decoration-line:none;letter-spacing:normal;word-spacing:normal;text-transform:none;direction:ltr;block-progression:tb;writing-mode:lr-tb;text-anchor:start;display:inline;overflow:visible;visibility:visible;fill:#fd3301;fill-opacity:1;fill-rule:nonzero;stroke:none;stroke-width:1.10000002;marker:none;enable-background:accumulate"
       x="3947.5688"
       y="2436.072"
       id="text6595"
       sodipodi:linespacing="100%"><tspan
         sodipodi:role="line"
         id="tspan6597"
         x="3947.5688"
         y="2436.072">2</tspan></text>
    <text
       xml:space="preserve"
       style="color:#000000;font-style:normal;font-variant:normal;font-weight:900;font-stretch:normal;font-size:15.54747677px;line-height:100%;font-family:'Comic Sans MS';-inkscape-font-specification:'Comic Sans MS';text-indent:0;text-align:start;text-decoration:none;text-decoration-line:none;letter-spacing:normal;word-spacing:normal;text-transform:none;direction:ltr;block-progression:tb;writing-mode:lr-tb;text-anchor:start;display:inline;overflow:visible;visibility:visible;fill:#fd3301;fill-opacity:1;fill-rule:nonzero;stroke:none;stroke-width:1.10000002;marker:none;enable-background:accumulate"
       x="3911.928"
       y="2436.072"
       id="text6599"
       sodipodi:linespacing="100%"><tspan
         sodipodi:role="line"
         id="tspan6601"
         x="3911.928"
         y="2436.072">2</tspan></text>
    <text
       xml:space="preserve"
       style="color:#000000;font-style:normal;font-variant:normal;font-weight:900;font-stretch:normal;font-size:15.54747677px;line-height:100%;font-family:'Comic Sans MS';-inkscape-font-specification:'Comic Sans MS';text-indent:0;text-align:start;text-decoration:none;text-decoration-line:none;letter-spacing:normal;word-spacing:normal;text-transform:none;direction:ltr;block-progression:tb;writing-mode:lr-tb;text-anchor:start;display:inline;overflow:visible;visibility:visible;fill:#fd3301;fill-opacity:1;fill-rule:nonzero;stroke:none;stroke-width:1.10000002;marker:none;enable-background:accumulate"
       x="3903.9114"
       y="2458.8818"
       id="text6603"
       sodipodi:linespacing="100%"><tspan
         sodipodi:role="line"
         id="tspan6605"
         x="3903.9114"
         y="2458.8818">-2</tspan></text>
    <text
       xml:space="preserve"
       style="color:#000000;font-style:normal;font-variant:normal;font-weight:900;font-stretch:normal;font-size:15.54747677px;line-height:100%;font-family:'Comic Sans MS';-inkscape-font-specification:'Comic Sans MS';text-indent:0;text-align:start;text-decoration:none;text-decoration-line:none;letter-spacing:normal;word-spacing:normal;text-transform:none;direction:ltr;block-progression:tb;writing-mode:lr-tb;text-anchor:start;display:inline;overflow:visible;visibility:visible;fill:#fd3301;fill-opacity:1;fill-rule:nonzero;stroke:none;stroke-width:1.10000002;marker:none;enable-background:accumulate"
       x="3930.8777"
       y="2481.4995"
       id="text6607"
       sodipodi:linespacing="100%"><tspan
         sodipodi:role="line"
         id="tspan6609"
         x="3930.8777"
         y="2481.4995">-10</tspan></text>
    <text
       xml:space="preserve"
       style="color:#000000;font-style:normal;font-variant:normal;font-weight:900;font-stretch:normal;font-size:15.54747677px;line-height:100%;font-family:'Comic Sans MS';-inkscape-font-specification:'Comic Sans MS';text-indent:0;text-align:start;text-decoration:none;text-decoration-line:none;letter-spacing:normal;word-spacing:normal;text-transform:none;direction:ltr;block-progression:tb;writing-mode:lr-tb;text-anchor:start;display:inline;overflow:visible;visibility:visible;fill:#fd3301;fill-opacity:1;fill-rule:nonzero;stroke:none;stroke-width:1.10000002;marker:none;enable-background:accumulate"
       x="3912.0269"
       y="2481.4995"
       id="text6611"
       sodipodi:linespacing="100%"><tspan
         sodipodi:role="line"
         id="tspan6613"
         x="3912.0269"
         y="2481.4995">0</tspan></text>
    <text
       xml:space="preserve"
       style="color:#000000;font-style:normal;font-variant:normal;font-weight:900;font-stretch:normal;font-size:15.54747677px;line-height:100%;font-family:'Comic Sans MS';-inkscape-font-specification:'Comic Sans MS';text-indent:0;text-align:start;text-decoration:none;text-decoration-line:none;letter-spacing:normal;word-spacing:normal;text-transform:none;direction:ltr;block-progression:tb;writing-mode:lr-tb;text-anchor:start;display:inline;overflow:visible;visibility:visible;fill:#fd3301;fill-opacity:1;fill-rule:nonzero;stroke:none;stroke-width:1.10000002;marker:none;enable-background:accumulate"
       x="3947.7095"
       y="2458.8818"
       id="text6615"
       sodipodi:linespacing="100%"><tspan
         sodipodi:role="line"
         id="tspan6617"
         x="3947.7095"
         y="2458.8818">3</tspan></text>
    <path
       d="m 3899.6507,2420.0139 c -0.061,0 -0.1217,0 -0.1824,0 -0.059,0 -0.1186,0 -0.1778,0 -0.063,0 -0.1263,0 -0.1894,-0.011 -0.088,0 -0.1753,-0.011 -0.2631,-0.013 -0.1125,-0.011 -0.2253,-0.011 -0.338,-0.011 -0.1045,0 -0.2095,0 -0.3142,0 -0.085,0 -0.1691,0 -0.2536,0 -0.091,0 -0.1832,-0.011 -0.2747,-0.011 -0.089,0 -0.1773,-0.011 -0.266,-0.011 -0.087,0 -0.1729,-0.011 -0.2594,-0.011 -0.081,0 -0.1634,-0.011 -0.2452,-0.011 -0.076,0 -0.1509,-0.011 -0.2265,-0.011 -0.068,0 -0.137,0 -0.2054,-0.011 -0.066,0 -0.1327,-0.011 -0.1991,-0.011 -0.065,0 -0.1294,-0.011 -0.1941,-0.011 -0.061,0 -0.1215,0 -0.1822,-0.011 -0.053,0 -0.1045,0 -0.157,-0.011 -0.061,0 -0.1207,-0.011 -0.1811,-0.012 -0.062,0 -0.1232,-0.011 -0.1849,-0.011 -0.059,0 -0.1187,-0.011 -0.178,-0.011 -0.055,0 -0.1089,-0.011 -0.1633,-0.011 -0.051,0 -0.1001,-0.011 -0.1505,-0.011 -0.046,0 -0.092,-0.011 -0.1384,-0.011 -0.043,0 -0.085,0 -0.1276,-0.011 -0.04,0 -0.078,0 -0.1173,-0.011 -0.036,0 -0.073,0 -0.1078,-0.011 -0.033,0 -0.066,0 -0.1001,0 -0.031,0 -0.061,0 -0.091,0 -0.028,-3e-4 -0.056,0 -0.085,0 -0.026,-3e-4 -0.052,0 -0.078,0 -0.04,0 -0.078,0 -0.1175,0 -0.1556,0 -0.3055,0.028 -0.4512,0.074 -0.1984,0.068 -0.3573,0.1898 -0.4928,0.3352 -0.096,0.1089 -0.1616,0.2351 -0.2131,0.366 -0.03,0.078 -0.051,0.1596 -0.068,0.2409 -0.015,0.068 -0.026,0.1368 -0.037,0.2056 -0.011,0.079 -0.02,0.1576 -0.025,0.2367 0,0.066 -0.011,0.132 -0.013,0.1979 0,0.069 -0.011,0.1397 -0.011,0.2094 0,0.074 -0.011,0.1475 -0.011,0.2213 0,0.08 0,0.1597 0,0.2395 3e-4,0.085 0,0.1706 0,0.2559 0,0.089 0,0.1793 0.011,0.2689 0,0.1001 0.011,0.2004 0.011,0.3007 0,0.1067 0.011,0.2123 0.014,0.3184 0,0.1089 0.011,0.2182 0.018,0.3274 0.011,0.115 0.013,0.23 0.02,0.3449 0.011,0.1206 0.014,0.241 0.022,0.3616 0.011,0.1259 0.015,0.2519 0.024,0.3777 0.011,0.1242 0.017,0.2483 0.023,0.3726 0.011,0.1256 0.014,0.2514 0.021,0.3771 0.011,0.132 0.015,0.2639 0.022,0.3959 0.011,0.1402 0.015,0.2805 0.023,0.4206 0.011,0.1484 0.015,0.2967 0.022,0.4451 0.011,0.1575 0.014,0.3151 0.02,0.4726 0.011,0.1661 0.012,0.3321 0.018,0.4982 0.011,0.1788 0.011,0.3576 0.015,0.5365 0,0.192 0.011,0.3839 0.012,0.5759 0,0.2054 0,0.4109 0.011,0.6165 0,0.2178 0,0.4357 0,0.6535 0,0.2253 0,0.4505 0,0.6757 0,0.2266 0,0.4534 0,0.6801 0,0.2266 0,0.4533 0,0.6799 2e-4,0.2277 2e-4,0.4555 2e-4,0.6832 -2e-4,0.228 -2e-4,0.456 0,0.6842 -2e-4,0.2292 0,0.4586 0,0.6879 -2e-4,0.2304 0,0.4608 0,0.6913 0,0.2326 0,0.4653 -0.011,0.6979 0,0.2359 -0.011,0.4717 -0.015,0.7075 -0.011,0.2397 -0.013,0.4795 -0.02,0.7193 -0.011,0.2418 -0.014,0.4836 -0.023,0.7253 -0.011,0.2422 -0.02,0.4844 -0.03,0.7265 -0.011,0.2445 -0.023,0.489 -0.035,0.7335 -0.012,0.2436 -0.023,0.4874 -0.033,0.7312 -0.011,0.2349 -0.021,0.47 -0.032,0.7049 -0.011,0.2276 -0.022,0.4551 -0.033,0.6826 -0.011,0.2241 -0.021,0.448 -0.031,0.6721 -0.011,0.221 -0.019,0.442 -0.03,0.6631 -0.011,0.2206 -0.021,0.4413 -0.032,0.662 -0.011,0.2214 -0.021,0.4428 -0.031,0.6641 -0.011,0.2196 -0.02,0.439 -0.029,0.6587 -0.011,0.2166 -0.02,0.4333 -0.03,0.65 -0.011,0.2187 -0.02,0.4371 -0.03,0.6558 -0.011,0.2195 -0.019,0.4389 -0.027,0.6585 -0.011,0.2177 -0.018,0.4353 -0.026,0.6528 -0.011,0.2164 -0.017,0.4329 -0.025,0.6493 -0.011,0.2147 -0.015,0.4293 -0.023,0.644 -0.011,0.2103 -0.015,0.4206 -0.022,0.631 -0.011,0.21 -0.013,0.4202 -0.019,0.6303 -0.011,0.2112 -0.011,0.4226 -0.012,0.6339 0,0.2125 -0.011,0.4251 -0.011,0.6378 0,0.2143 0,0.4286 0,0.6429 0,0.2146 0,0.4292 0,0.6437 0,0.2148 0,0.4294 0,0.644 0,0.2188 0,0.4375 2e-4,0.6562 0,0.2221 0,0.4442 0.011,0.6663 0,0.2238 0.011,0.4476 0.011,0.6715 0,0.228 0,0.456 0.011,0.684 0,0.2319 0.011,0.4639 0.011,0.6959 0,0.2306 0.011,0.4611 0.011,0.6918 0,0.2259 0,0.4519 0.011,0.6779 0,0.2218 0,0.4437 0.011,0.6655 0,0.2216 0,0.4431 0.011,0.6646 0,0.2194 0.011,0.4388 0.011,0.6582 0,0.221 0,0.4418 0.011,0.6628 0,0.224 0,0.4478 0,0.6718 0,0.2257 0,0.4513 0,0.6771 0,0.2275 0,0.455 0.011,0.6825 0,0.2232 0,0.4463 0.011,0.6692 0,0.2206 0,0.4411 0.011,0.6617 0,0.2182 0,0.4364 0,0.6546 0,0.217 0,0.434 0,0.651 0,0.2176 0,0.435 0,0.6526 0,0.2147 0,0.4295 0,0.6442 0,0.2119 0,0.4239 0,0.6359 0,0.2094 0,0.4188 0,0.6283 0,0.2099 0,0.4199 0,0.6299 0,0.2113 0,0.4226 0,0.6338 0,0.2107 0,0.4215 0,0.6323 1e-4,0.2113 2e-4,0.4225 1e-4,0.6337 10e-5,0.2114 -2e-4,0.4226 0,0.634 -2e-4,0.2092 0,0.4186 0,0.6278 0,0.2091 0,0.4181 0,0.6272 0,0.209 0,0.4181 0,0.627 0,0.2053 0,0.4105 0,0.6157 0,0.197 0,0.394 0,0.5911 0,0.186 0,0.372 0,0.558 0,0.1762 0,0.3522 0,0.5283 0,0.1656 0,0.3313 0,0.4971 0,0.1562 0,0.3124 0,0.4687 0,0.1489 0,0.2978 0,0.4469 0,0.1448 0,0.2897 0,0.4346 0,0.1433 0,0.2867 0,0.43 0,0.1389 0,0.2781 0,0.417 0,0.1328 0,0.2654 0,0.3982 0,0.1341 0,0.2682 -3e-4,0.4023 0,0.1278 0,0.2557 0,0.3835 0,0.1219 0,0.2439 0,0.3658 0,0.1179 0,0.2356 0.011,0.3533 0,0.1223 0.011,0.2445 0.015,0.3668 0.011,0.1106 0.012,0.2214 0.018,0.3322 0.011,0.1012 0.011,0.2035 0.017,0.3052 0,0.095 0.011,0.1893 0.015,0.284 0,0.098 0.011,0.1952 0.018,0.2926 0.011,0.091 0.011,0.1825 0.017,0.2738 0,0.089 0.011,0.178 0.015,0.267 0,0.085 0.011,0.1705 0.014,0.2556 0,0.082 0.011,0.1645 0.013,0.2468 0,0.079 0.011,0.1576 0.012,0.2365 0,0.076 0.011,0.1507 0.011,0.226 0,0.072 0.011,0.1423 0.011,0.2135 0,0.066 0.011,0.1314 0.011,0.1969 0,0.06 0.011,0.1209 0.011,0.1813 0,0.056 0,0.1112 0.011,0.167 0,0.052 0,0.1023 0.011,0.1535 0,0.047 0,0.095 0.011,0.1416 0,0.043 0,0.087 0.011,0.1302 0,0.04 0,0.08 0,0.1199 0,0.036 0,0.074 0,0.1104 0,0.034 0,0.068 0,0.1012 0,0.031 0,0.063 0,0.093 0,0.029 0,0.057 0,0.086 0,0.026 0,0.053 0,0.079 0,0.024 0,0.048 0,0.073 0,0.04 0,0.08 0.011,0.1198 0.011,0.076 0.026,0.1504 0.048,0.224 0.035,0.1185 0.099,0.2252 0.1722,0.3272 0.056,0.075 0.1246,0.1397 0.1971,0.2008 0.085,0.072 0.1841,0.1258 0.2856,0.1754 0.081,0.037 0.1677,0.065 0.2552,0.088 0.051,0.013 0.1023,0.024 0.1539,0.034 0.058,0.012 0.1185,0.02 0.1781,0.028 0.045,0.011 0.089,0.011 0.1343,0.015 0.052,0.011 0.1034,0.011 0.1548,0.014 0.056,0 0.1114,0.011 0.1671,0.013 0.047,0 0.096,0.011 0.1429,0.013 0.056,0 0.1131,0.011 0.1696,0.015 0.059,0 0.1194,0.011 0.1791,0.014 0.061,0 0.122,0.011 0.183,0.013 0.057,0 0.1146,0.011 0.172,0.011 0.053,0 0.1056,0.011 0.1577,0.011 0.042,0 0.084,0.011 0.1245,0.012 0.055,0 0.11,0.011 0.1651,0.015 0.057,0 0.1146,0.011 0.172,0.014 0.056,0 0.1115,0.011 0.1674,0.013 0.052,0 0.1023,0.011 0.1543,0.011 0.05,0 0.099,0.011 0.1484,0.011 0.048,0 0.098,0.011 0.1462,0.011 0.047,0 0.095,0.011 0.1413,0.011 0.051,0 0.1001,0.011 0.1507,0.011 0.061,0 0.1203,0.011 0.1803,0.011 0.059,0 0.1199,0 0.1798,0.011 0.055,0 0.1104,0 0.1656,0 0.067,0 0.1339,0 0.2008,0 0.069,0 0.1385,0 0.2077,0 0.059,0 0.1192,0 0.1787,0 0.055,0 0.1109,0 0.1662,0 0.056,0 0.1116,0 0.1672,0 0.058,0 0.1158,0 0.1737,0 0.056,0 0.1113,0 0.1668,0 0.052,0 0.1034,0 0.1545,0 0.051,0 0.1001,0 0.1504,0 0.051,0 0.1023,0 0.1533,0 0.05,0 0.099,0 0.1492,0 0.042,0 0.082,0 0.1246,0 0.042,0 0.085,0 0.1268,0 0.037,0 0.076,0 0.1139,0 0.045,0 0.091,0 0.1365,0.011 0.042,0 0.085,0 0.1266,0.011 0.038,0 0.078,0 0.1167,0.011 0.036,0 0.072,0 0.1078,0.011 0.033,0 0.066,0 0.099,0 0.049,0 0.051,0 0,0 0,0 0.298,-1.8546 0.298,-1.8546 l 0,0 c -0.062,-0.011 -0.1233,-0.014 -0.1853,-0.015 -0.033,0 -0.066,0 -0.099,0 -0.036,0 -0.072,0 -0.1078,0 -0.039,0 -0.078,0 -0.1167,-0.011 -0.042,0 -0.085,0 -0.1268,-0.011 -0.046,0 -0.092,0 -0.1386,-0.011 -0.059,0 -0.1182,-0.011 -0.1775,-0.011 -0.054,0 -0.1067,0 -0.1608,0 -0.054,0 -0.1078,0 -0.1617,0 -0.051,0 -0.1001,0 -0.1508,0 -0.053,0 -0.1056,0 -0.1581,0 -0.052,0 -0.1045,0 -0.1565,0 -0.052,0 -0.1045,0 -0.156,0 -0.056,0 -0.1116,0 -0.1672,0 -0.059,0 -0.1194,0 -0.1791,0 -0.059,0 -0.118,0 -0.1771,0 -0.057,0 -0.1135,0 -0.1703,0 -0.059,0 -0.1186,0 -0.178,0 -0.053,0 -0.1045,0 -0.1574,0 -0.05,0 -0.099,0 -0.148,0 -0.054,0 -0.1089,0 -0.163,0 -0.048,0 -0.098,0 -0.1463,0 -0.045,0 -0.089,0 -0.1341,-0.011 -0.045,0 -0.089,0 -0.1336,-0.011 -0.045,0 -0.089,-0.011 -0.1343,-0.011 -0.046,0 -0.092,-0.011 -0.1391,-0.011 -0.047,0 -0.095,-0.011 -0.1416,-0.011 -0.051,0 -0.1023,-0.011 -0.1537,-0.011 -0.053,0 -0.1056,-0.011 -0.1583,-0.012 -0.051,0 -0.1023,-0.011 -0.1531,-0.013 -0.05,0 -0.099,-0.011 -0.1486,-0.014 -0.061,-0.011 -0.1211,-0.011 -0.1818,-0.017 -0.053,0 -0.1056,-0.011 -0.1578,-0.011 -0.056,0 -0.1132,-0.011 -0.1696,-0.012 -0.056,0 -0.1128,-0.011 -0.1692,-0.012 -0.053,0 -0.1056,-0.011 -0.159,-0.012 -0.053,0 -0.1056,-0.011 -0.1591,-0.014 -0.061,0 -0.1221,-0.011 -0.1832,-0.015 -0.045,0 -0.091,-0.011 -0.1367,-0.011 -0.035,0 -0.07,-0.011 -0.1056,-0.011 -0.031,0 -0.062,-0.011 -0.091,-0.011 -0.043,-0.011 0.011,0 -0.031,0 -0.011,-10e-5 -0.039,-0.011 -0.03,-0.011 0.036,0.011 0.072,0.023 0.1056,0.04 0.062,0.031 0.1216,0.064 0.1727,0.1089 0.042,0.036 0.081,0.075 0.1136,0.119 0.051,0.073 0.096,0.1468 0.1201,0.2304 0.011,0.036 0.02,0.073 0.023,0.1089 0,-0.035 0,0.021 0,-0.011 0,-0.024 0,-0.048 0,-0.073 0,-0.026 0,-0.053 0,-0.079 0,-0.029 0,-0.057 0,-0.086 0,-0.031 0,-0.063 0,-0.093 0,-0.034 0,-0.068 0,-0.1012 0,-0.036 0,-0.074 0,-0.1103 0,-0.04 0,-0.08 0,-0.1199 0,-0.044 0,-0.087 -0.011,-0.1302 0,-0.047 0,-0.095 -0.011,-0.1415 0,-0.052 0,-0.1023 -0.011,-0.1537 0,-0.056 0,-0.1113 -0.011,-0.1669 0,-0.061 -0.011,-0.1208 -0.011,-0.1813 0,-0.066 -0.011,-0.1312 -0.011,-0.1968 0,-0.072 -0.011,-0.1427 -0.011,-0.214 0,-0.077 -0.011,-0.1535 -0.011,-0.2303 0,-0.08 -0.011,-0.1597 -0.012,-0.2397 0,-0.084 -0.011,-0.1682 -0.013,-0.2521 0,-0.087 -0.011,-0.1736 -0.014,-0.2604 0,-0.09 -0.011,-0.1816 -0.015,-0.2723 0,-0.093 -0.011,-0.1873 -0.018,-0.2808 -0.011,-0.09 -0.012,-0.1806 -0.017,-0.271 0,-0.097 -0.011,-0.1926 -0.015,-0.289 0,-0.1012 -0.011,-0.2034 -0.017,-0.3052 -0.011,-0.11 -0.012,-0.2198 -0.018,-0.3297 -0.011,-0.1078 -0.011,-0.2153 -0.014,-0.3229 0,-0.11 0,-0.2195 -0.011,-0.3293 0,-0.1171 0,-0.2344 0,-0.3515 0,-0.1279 0,-0.2557 0,-0.3834 0,-0.1275 0,-0.255 3e-4,-0.3825 0,-0.1327 0,-0.2657 0,-0.3986 0,-0.139 0,-0.2783 0,-0.4174 0,-0.1436 0,-0.2871 0,-0.4308 0,-0.1452 0,-0.2904 0,-0.4356 0,-0.1491 0,-0.2982 0,-0.4474 0,-0.1563 0,-0.3127 0,-0.4691 0,-0.1658 0,-0.3316 0,-0.4973 0,-0.1763 0,-0.3524 0,-0.5285 0,-0.1862 0,-0.3723 0,-0.5586 0,-0.1972 0,-0.3943 0,-0.5915 0,-0.2055 0,-0.411 0,-0.6165 0,-0.2094 0,-0.4189 0,-0.6283 0,-0.2097 0,-0.4192 0,-0.6288 0,-0.2097 0,-0.4196 0,-0.6294 2e-4,-0.2118 0,-0.4237 0,-0.6356 -10e-5,-0.2118 0,-0.4237 -10e-5,-0.6356 -1e-4,-0.2116 0,-0.4229 0,-0.6344 0,-0.212 0,-0.4241 0,-0.6361 0,-0.2109 0,-0.4218 0,-0.6328 0,-0.2102 0,-0.4204 0,-0.6306 0,-0.2127 0,-0.4256 0,-0.6383 0,-0.2152 0,-0.4303 -0.011,-0.6456 0,-0.2154 0,-0.4307 0,-0.646 0,-0.2178 0,-0.4358 0,-0.6536 0,-0.2191 0,-0.4381 0,-0.6572 0,-0.2214 0,-0.4429 -0.011,-0.6642 0,-0.2237 0,-0.4476 -0.011,-0.6712 0,-0.2243 0,-0.4487 -0.011,-0.673 0,-0.2266 0,-0.4533 0,-0.6799 0,-0.2251 0,-0.4501 0,-0.6751 0,-0.2222 0,-0.4444 -0.011,-0.6666 0,-0.2205 0,-0.441 -0.011,-0.6616 0,-0.2192 -0.011,-0.4386 -0.011,-0.6579 0,-0.2228 0,-0.4455 -0.011,-0.6682 0,-0.2269 0,-0.4537 -0.011,-0.6805 0,-0.2315 -0.011,-0.4631 -0.011,-0.6947 0,-0.2313 -0.011,-0.4625 -0.011,-0.6939 0,-0.2272 0,-0.4544 -0.011,-0.6815 0,-0.225 0,-0.4499 -0.011,-0.6749 0,-0.2172 -0.011,-0.4346 -0.011,-0.6518 0,-0.2133 0,-0.4266 -1e-4,-0.6398 0,-0.215 0,-0.43 0,-0.645 0,-0.2141 0,-0.4283 0,-0.6424 0,-0.2118 0,-0.4235 0,-0.6353 0,-0.209 0,-0.4179 0.011,-0.6269 0,-0.2061 0.011,-0.4123 0.012,-0.6183 0,-0.2049 0.011,-0.4098 0.018,-0.6147 0.011,-0.2095 0.014,-0.4191 0.022,-0.6286 0.011,-0.2137 0.015,-0.4276 0.023,-0.6413 0.011,-0.2153 0.017,-0.4304 0.024,-0.6458 0.011,-0.2165 0.017,-0.433 0.026,-0.6495 0.011,-0.2182 0.019,-0.4363 0.028,-0.6545 0.011,-0.217 0.019,-0.4341 0.029,-0.6513 0.011,-0.2185 0.021,-0.4371 0.03,-0.6557 0.011,-0.2182 0.019,-0.4366 0.029,-0.6547 0.011,-0.22 0.02,-0.44 0.031,-0.6599 0.011,-0.2212 0.021,-0.4425 0.032,-0.6637 0.011,-0.2219 0.019,-0.444 0.03,-0.6659 0.011,-0.2227 0.021,-0.4454 0.031,-0.6681 0.011,-0.228 0.022,-0.4562 0.033,-0.6843 0.011,-0.2357 0.021,-0.4716 0.032,-0.7074 0.011,-0.2426 0.022,-0.4851 0.033,-0.7278 0.012,-0.2462 0.023,-0.4923 0.035,-0.7385 0.011,-0.2468 0.022,-0.4935 0.031,-0.7402 0.011,-0.246 0.017,-0.4919 0.024,-0.7378 0.011,-0.2432 0.014,-0.4863 0.021,-0.7294 0,-0.2398 0.011,-0.4796 0.015,-0.7194 0,-0.2369 0.011,-0.4739 0.011,-0.7107 0,-0.234 0,-0.4678 0,-0.7018 0,-0.2299 0,-0.4598 0,-0.6897 0,-0.2286 0,-0.4573 0,-0.686 1e-4,-0.2284 -10e-5,-0.4568 -2e-4,-0.6852 -4e-4,-0.2273 0,-0.4547 0,-0.6821 0,-0.2274 0,-0.4548 0,-0.6822 0,-0.2264 0,-0.4526 0,-0.6789 0,-0.2193 0,-0.4387 0,-0.658 0,-0.2099 0,-0.4199 -0.011,-0.6298 0,-0.1975 -0.011,-0.3951 -0.013,-0.5927 0,-0.1827 -0.011,-0.3653 -0.015,-0.548 0,-0.17 -0.011,-0.3401 -0.019,-0.51 -0.011,-0.1619 -0.013,-0.3234 -0.02,-0.4851 -0.011,-0.1537 -0.014,-0.3074 -0.023,-0.4609 -0.011,-0.1395 -0.015,-0.2789 -0.023,-0.4184 -0.011,-0.1313 -0.015,-0.2627 -0.022,-0.3939 -0.011,-0.1296 -0.014,-0.2593 -0.022,-0.3888 -0.011,-0.1279 -0.015,-0.2557 -0.024,-0.3834 -0.011,-0.1225 -0.016,-0.2451 -0.023,-0.3676 -0.011,-0.1197 -0.015,-0.2393 -0.021,-0.359 -0.011,-0.1121 -0.014,-0.2242 -0.02,-0.3364 -0.011,-0.1067 -0.012,-0.213 -0.018,-0.3196 0,-0.1001 -0.011,-0.2003 -0.014,-0.3005 0,-0.093 -0.011,-0.1869 -0.011,-0.2804 0,-0.087 0,-0.1735 -0.011,-0.2601 0,-0.075 0,-0.1505 0,-0.2258 -3e-4,-0.067 0,-0.1349 0,-0.2025 0,-0.061 0,-0.1201 0.011,-0.1801 0,-0.056 0,-0.1129 0.011,-0.1693 0,-0.057 0.011,-0.1156 0.012,-0.1735 0,-0.036 0.011,-0.072 0.011,-0.1078 0,-0.03 0.011,-0.061 0.015,-0.09 0,-0.018 0.012,-0.051 0,-0.011 -0.031,0.067 -0.067,0.1307 -0.1194,0.1863 -0.1034,0.1078 -0.2252,0.1961 -0.3738,0.2456 -0.1034,0.031 -0.2092,0.055 -0.3193,0.052 -0.079,0 0.011,10e-5 0.025,2e-4 0.025,3e-4 0.052,0 0.078,0 0.027,3e-4 0.056,0 0.085,0 0.031,0 0.062,0 0.091,0 0.033,0 0.066,0 0.099,0.011 0.036,0 0.073,0 0.1078,0.011 0.04,0 0.078,0 0.1174,0.011 0.043,0 0.085,0 0.1275,0.011 0.046,0 0.092,0 0.1385,0.011 0.051,0 0.1001,0.011 0.1503,0.011 0.055,0 0.1089,0.011 0.1634,0.011 0.058,0 0.1165,0.011 0.1748,0.011 0.059,0 0.1181,0.011 0.1772,0.011 0.059,0 0.1188,0.011 0.1782,0.011 0.066,0 0.1324,0.011 0.1987,0.011 0.061,0 0.1202,0 0.1802,0.011 0.065,0 0.1297,0.011 0.1945,0.011 0.074,0 0.1472,0.011 0.2208,0.011 0.076,0 0.1514,0 0.2271,0.011 0.076,0 0.1508,0.011 0.2263,0.011 0.081,0 0.1633,0.011 0.245,0.011 0.086,0 0.1719,0.011 0.2579,0.011 0.088,0 0.1765,0.011 0.2648,0.011 0.096,0 0.1906,0.011 0.286,0.011 0.1105,0 0.2211,0 0.3315,3e-4 0.09,0 0.1813,0 0.2719,0 0.079,0 0.1577,0 0.2363,0.011 0.089,0 0.1793,0.011 0.269,0.014 0.09,0 0.1809,0.011 0.2713,0.011 0.069,0 0.1399,0 0.2097,0 0.065,0 0.13,0 0.1949,0 0,0 -0.024,-1.8747 -0.024,-1.8747 z"
       id="path6619"
       style="color:#000000;display:inline;overflow:visible;visibility:visible;fill:#0169c9;fill-opacity:1;fill-rule:nonzero;stroke:#636466;stroke-width:0.09941137;stroke-linecap:butt;stroke-linejoin:round;stroke-miterlimit:4;stroke-dasharray:none;stroke-dashoffset:0;stroke-opacity:1;marker:none;enable-background:accumulate"
       inkscape:connector-curvature="0" />
    <text
       xml:space="preserve"
       style="color:#000000;font-style:normal;font-variant:normal;font-weight:900;font-stretch:normal;font-size:15.54747677px;line-height:100%;font-family:'Comic Sans MS';-inkscape-font-specification:'Comic Sans MS';text-indent:0;text-align:start;text-decoration:none;text-decoration-line:none;letter-spacing:normal;word-spacing:normal;text-transform:none;direction:ltr;block-progression:tb;writing-mode:lr-tb;text-anchor:start;display:inline;overflow:visible;visibility:visible;fill:#fd3301;fill-opacity:1;fill-rule:nonzero;stroke:none;stroke-width:1.10000002;marker:none;enable-background:accumulate"
       x="3983.8223"
       y="2436.072"
       id="text6621"
       sodipodi:linespacing="100%"><tspan
         sodipodi:role="line"
         id="tspan6623"
         x="3983.8223"
         y="2436.072">2</tspan></text>
    <text
       xml:space="preserve"
       style="color:#000000;font-style:normal;font-variant:normal;font-weight:900;font-stretch:normal;font-size:15.54747677px;line-height:100%;font-family:'Comic Sans MS';-inkscape-font-specification:'Comic Sans MS';text-indent:0;text-align:start;text-decoration:none;text-decoration-line:none;letter-spacing:normal;word-spacing:normal;text-transform:none;direction:ltr;block-progression:tb;writing-mode:lr-tb;text-anchor:start;display:inline;overflow:visible;visibility:visible;fill:#fd3301;fill-opacity:1;fill-rule:nonzero;stroke:none;stroke-width:1.10000002;marker:none;enable-background:accumulate"
       x="3983.9207"
       y="2481.4995"
       id="text6625"
       sodipodi:linespacing="100%"><tspan
         sodipodi:role="line"
         id="tspan6627"
         x="3983.9207"
         y="2481.4995">0</tspan></text>
    <text
       xml:space="preserve"
       style="color:#000000;font-style:normal;font-variant:normal;font-weight:900;font-stretch:normal;font-size:15.54747677px;line-height:100%;font-family:'Comic Sans MS';-inkscape-font-specification:'Comic Sans MS';text-indent:0;text-align:start;text-decoration:none;text-decoration-line:none;letter-spacing:normal;word-spacing:normal;text-transform:none;direction:ltr;block-progression:tb;writing-mode:lr-tb;text-anchor:start;display:inline;overflow:visible;visibility:visible;fill:#fd3301;fill-opacity:1;fill-rule:nonzero;stroke:none;stroke-width:1.10000002;marker:none;enable-background:accumulate"
       x="3983.9624"
       y="2458.8818"
       id="text6629"
       sodipodi:linespacing="100%"><tspan
         sodipodi:role="line"
         id="tspan6631"
         x="3983.9624"
         y="2458.8818">3</tspan></text>
    <text
       xml:space="preserve"
       style="color:#000000;font-style:normal;font-variant:normal;font-weight:bold;font-stretch:normal;font-size:21.76615524px;line-height:100%;font-family:'Comic Sans MS';-inkscape-font-specification:'Comic Sans MS';text-indent:0;text-align:start;text-decoration:none;text-decoration-line:none;letter-spacing:normal;word-spacing:normal;text-transform:none;direction:ltr;block-progression:tb;writing-mode:lr-tb;text-anchor:start;display:inline;overflow:visible;visibility:visible;fill:#d76cff;fill-opacity:1;fill-rule:nonzero;stroke:none;stroke-width:1.10000002;marker:none;enable-background:accumulate"
       x="3864.3774"
       y="2457.7046"
       id="text6540-9-1-0"
       sodipodi:linespacing="100%"><tspan
         sodipodi:role="line"
         id="tspan6542-4-5-4"
         x="3864.3774"
         y="2457.7046">=</tspan></text>
    <text
       sodipodi:linespacing="125%"
       id="text6873"
       y="2506.0229"
       x="3901.2517"
       style="color:#000000;font-style:italic;font-variant:normal;font-weight:normal;font-stretch:normal;font-size:19.25px;line-height:125%;font-family:'Comic Sans MS';-inkscape-font-specification:'Comic Sans MS, Italic';text-indent:0;text-align:start;text-decoration:none;text-decoration-line:none;letter-spacing:0px;word-spacing:0px;text-transform:none;direction:ltr;block-progression:tb;writing-mode:lr-tb;text-anchor:start;display:inline;overflow:visible;visibility:visible;fill:#005c94;fill-opacity:1;fill-rule:nonzero;stroke:none;stroke-width:1px;marker:none;enable-background:accumulate"
       xml:space="preserve"><tspan
         y="2506.0229"
         x="3901.2517"
         id="tspan6875"
         sodipodi:role="line">余子式矩阵</tspan></text>
  </g>
</svg>
