{
  "asset": {
    "version": "2.0",
    "generator": "THREE.GLTFExporter"
  },
  "scenes": [
    {
      "nodes": [
        10,
        11
      ],
      "name": "Scene"
    }
  ],
  "scene": 0,
  "nodes": [
    {
      "matrix": [
        -1,
        0,
        0,
        0,
        0,
        -2.220446049250313e-16,
        1,
        0,
        0,
        1,
        2.220446049250313e-16,
        0,
        5218,
        0,
        -2299,
        1
      ],
      "name": "BodyBlack",
      "mesh": 0
    },
    {
      "matrix": [
        -1,
        0,
        0,
        0,
        0,
        -2.220446049250313e-16,
        1,
        0,
        0,
        1,
        2.220446049250313e-16,
        0,
        5218,
        0,
        -2299,
        1
      ],
      "name": "BodySilver",
      "mesh": 1
    },
    {
      "matrix": [
        -1,
        0,
        0,
        0,
        0,
        -2.220446049250313e-16,
        1,
        0,
        0,
        1,
        2.220446049250313e-16,
        0,
        5218,
        0,
        -2299,
        1
      ],
      "name": "TailLights",
      "mesh": 2
    },
    {
      "matrix": [
        -1,
        0,
        0,
        0,
        0,
        -2.220446049250313e-16,
        1,
        0,
        0,
        1,
        2.220446049250313e-16,
        0,
        5218,
        0,
        -2299,
        1
      ],
      "name": "Stop",
      "mesh": 3
    },
    {
      "matrix": [
        -1,
        0,
        0,
        0,
        0,
        -2.220446049250313e-16,
        1,
        0,
        0,
        1,
        2.220446049250313e-16,
        0,
        5218,
        0,
        -2299,
        1
      ],
      "name": "TailGrid",
      "mesh": 4
    },
    {
      "matrix": [
        -1,
        0,
        0,
        0,
        0,
        -2.220446049250313e-16,
        1,
        0,
        0,
        1,
        2.220446049250313e-16,
        0,
        5218,
        0,
        -2299,
        1
      ],
      "name": "GlassTinted",
      "mesh": 5
    },
    {
      "matrix": [
        -1,
        0,
        0,
        0,
        0,
        -2.220446049250313e-16,
        1,
        0,
        0,
        1,
        2.220446049250313e-16,
        0,
        5218,
        0,
        -2299,
        1
      ],
      "name": "GlassTransparent",
      "mesh": 6
    },
    {
      "matrix": [
        -1,
        0,
        0,
        0,
        0,
        -2.220446049250313e-16,
        1,
        0,
        0,
        1,
        2.220446049250313e-16,
        0,
        5218,
        0,
        -2299,
        1
      ],
      "name": "HeadLights",
      "mesh": 7
    },
    {
      "matrix": [
        -1,
        0,
        0,
        0,
        0,
        -2.220446049250313e-16,
        1,
        0,
        0,
        1,
        2.220446049250313e-16,
        0,
        5218,
        0,
        -2299,
        1
      ],
      "name": "Undercarriage",
      "mesh": 8
    },
    {
      "matrix": [
        -1,
        0,
        0,
        0,
        0,
        -2.220446049250313e-16,
        1,
        0,
        0,
        1,
        2.220446049250313e-16,
        0,
        5218,
        0,
        -2299,
        1
      ],
      "name": "Turn",
      "mesh": 9
    },
    {
      "matrix": [
        0.001,
        0,
        0,
        0,
        0,
        0.001,
        0,
        0,
        0,
        0,
        0.001,
        0,
        0,
        0,
        0,
        1
      ],
      "children": [
        0,
        1,
        2,
        3,
        4,
        5,
        6,
        7,
        8,
        9
      ]
    },
    {
      "matrix": [
        1,
        0,
        0,
        0,
        0,
        1,
        0,
        0,
        0,
        0,
        1,
        0,
        9.740639474894582,
        12.382809003763523,
        -5.828284900964681,
        1
      ],
      "name": "DirectionalLight",
      "extensions": {
        "KHR_lights_punctual": {
          "light": 0
        }
      }
    }
  ],
  "bufferViews": [
    {
      "buffer": 0,
      "byteOffset": 0,
      "byteLength": 303228,
      "target": 34962,
      "byteStride": 12
    },
    {
      "buffer": 0,
      "byteOffset": 303228,
      "byteLength": 303228,
      "target": 34962,
      "byteStride": 12
    },
    {
      "buffer": 0,
      "byteOffset": 606456,
      "byteLength": 247968,
      "target": 34963
    },
    {
      "buffer": 0,
      "byteOffset": 854424,
      "byteLength": 183984,
      "target": 34962,
      "byteStride": 12
    },
    {
      "buffer": 0,
      "byteOffset": 1038408,
      "byteLength": 183984,
      "target": 34962,
      "byteStride": 12
    },
    {
      "buffer": 0,
      "byteOffset": 1222392,
      "byteLength": 169116,
      "target": 34963
    },
    {
      "buffer": 0,
      "byteOffset": 1391508,
      "byteLength": 5436,
      "target": 34962,
      "byteStride": 12
    },
    {
      "buffer": 0,
      "byteOffset": 1396944,
      "byteLength": 908,
      "target": 34962,
      "byteStride": 2
    },
    {
      "buffer": 0,
      "byteOffset": 1397852,
      "byteLength": 3152,
      "target": 34963
    },
    {
      "buffer": 0,
      "byteOffset": 1401004,
      "byteLength": 336,
      "target": 34962,
      "byteStride": 8
    },
    {
      "buffer": 0,
      "byteOffset": 1401340,
      "byteLength": 504,
      "target": 34962,
      "byteStride": 12
    },
    {
      "buffer": 0,
      "byteOffset": 1401844,
      "byteLength": 504,
      "target": 34962,
      "byteStride": 12
    },
    {
      "buffer": 0,
      "byteOffset": 1402348,
      "byteLength": 240,
      "target": 34963
    },
    {
      "buffer": 0,
      "byteOffset": 1402588,
      "byteLength": 5696,
      "target": 34962,
      "byteStride": 2
    },
    {
      "buffer": 0,
      "byteOffset": 1408284,
      "byteLength": 34176,
      "target": 34962,
      "byteStride": 12
    },
    {
      "buffer": 0,
      "byteOffset": 1442460,
      "byteLength": 23496,
      "target": 34963
    },
    {
      "buffer": 0,
      "byteOffset": 1465956,
      "byteLength": 38592,
      "target": 34962,
      "byteStride": 12
    },
    {
      "buffer": 0,
      "byteOffset": 1504548,
      "byteLength": 38592,
      "target": 34962,
      "byteStride": 12
    },
    {
      "buffer": 0,
      "byteOffset": 1543140,
      "byteLength": 31376,
      "target": 34963
    },
    {
      "buffer": 0,
      "byteOffset": 1574516,
      "byteLength": 21624,
      "target": 34962,
      "byteStride": 12
    },
    {
      "buffer": 0,
      "byteOffset": 1596140,
      "byteLength": 21624,
      "target": 34962,
      "byteStride": 12
    },
    {
      "buffer": 0,
      "byteOffset": 1617764,
      "byteLength": 18276,
      "target": 34963
    },
    {
      "buffer": 0,
      "byteOffset": 1636040,
      "byteLength": 7320,
      "target": 34962,
      "byteStride": 12
    },
    {
      "buffer": 0,
      "byteOffset": 1643360,
      "byteLength": 1220,
      "target": 34962,
      "byteStride": 2
    },
    {
      "buffer": 0,
      "byteOffset": 1644580,
      "byteLength": 4116,
      "target": 34963
    },
    {
      "buffer": 0,
      "byteOffset": 1648696,
      "byteLength": 20844,
      "target": 34962,
      "byteStride": 12
    },
    {
      "buffer": 0,
      "byteOffset": 1669540,
      "byteLength": 20820,
      "target": 34963
    },
    {
      "buffer": 0,
      "byteOffset": 1690360,
      "byteLength": 648,
      "target": 34962,
      "byteStride": 12
    },
    {
      "buffer": 0,
      "byteOffset": 1691008,
      "byteLength": 648,
      "target": 34962,
      "byteStride": 12
    },
    {
      "buffer": 0,
      "byteOffset": 1691656,
      "byteLength": 432,
      "target": 34962,
      "byteStride": 8
    },
    {
      "buffer": 0,
      "byteOffset": 1692088,
      "byteLength": 384,
      "target": 34963
    }
  ],
  "buffers": [
    {
      "byteLength": 1692472,
      "uri": "data:application/octet-stream;base64,"
    }
  ],
  "accessors": [
    {
      "bufferView": 0,
      "componentType": 5126,
      "count": 25269,
      "max": [
        10474,
        4581,
        3201
      ],
      "min": [
        -27,
        16,
        412
      ],
      "type": "VEC3"
    },
    {
      "bufferView": 1,
      "componentType": 5126,
      "count": 25269,
      "max": [
        1,
        1,
        1
      ],
      "min": [
        -1,
        -1,
        -1
      ],
      "type": "VEC3"
    },
    {
      "bufferView": 2,
      "componentType": 5123,
      "count": 123984,
      "max": [
        25268
      ],
      "min": [
        0
      ],
      "type": "SCALAR"
    },
    {
      "bufferView": 3,
      "componentType": 5126,
      "count": 15332,
      "max": [
        0.9999499917030334,
        1,
        0.9999499917030334
      ],
      "min": [
        -1,
        -1,
        -1
      ],
      "type": "VEC3"
    },
    {
      "bufferView": 4,
      "componentType": 5126,
      "count": 15332,
      "max": [
        10463,
        4582,
        2837
      ],
      "min": [
        -28,
        15,
        787
      ],
      "type": "VEC3"
    },
    {
      "bufferView": 5,
      "componentType": 5123,
      "count": 84558,
      "max": [
        15331
      ],
      "min": [
        0
      ],
      "type": "SCALAR"
    },
    {
      "bufferView": 6,
      "componentType": 5126,
      "count": 453,
      "max": [
        10416,
        4137,
        2357
      ],
      "min": [
        8642,
        460,
        1114
      ],
      "type": "VEC3"
    },
    {
      "bufferView": 7,
      "componentType": 5123,
      "count": 453,
      "max": [
        7
      ],
      "min": [
        0
      ],
      "type": "SCALAR"
    },
    {
      "bufferView": 8,
      "componentType": 5123,
      "count": 1575,
      "max": [
        452
      ],
      "min": [
        0
      ],
      "type": "SCALAR"
    },
    {
      "bufferView": 9,
      "componentType": 5126,
      "count": 42,
      "max": [
        1,
        1
      ],
      "min": [
        0,
        0
      ],
      "type": "VEC2"
    },
    {
      "bufferView": 10,
      "componentType": 5126,
      "count": 42,
      "max": [
        10365,
        4040,
        2422
      ],
      "min": [
        9402,
        558,
        2150
      ],
      "type": "VEC3"
    },
    {
      "bufferView": 11,
      "componentType": 5126,
      "count": 42,
      "max": [
        1,
        0.9371460676193237,
        0
      ],
      "min": [
        0.34893736243247986,
        -0.9371460676193237,
        0
      ],
      "type": "VEC3"
    },
    {
      "bufferView": 12,
      "componentType": 5123,
      "count": 120,
      "max": [
        41
      ],
      "min": [
        0
      ],
      "type": "SCALAR"
    },
    {
      "bufferView": 13,
      "componentType": 5123,
      "count": 2848,
      "max": [
        3
      ],
      "min": [
        0
      ],
      "type": "SCALAR"
    },
    {
      "bufferView": 14,
      "componentType": 5126,
      "count": 2848,
      "max": [
        10349,
        3966,
        2267
      ],
      "min": [
        9477,
        637,
        2118
      ],
      "type": "VEC3"
    },
    {
      "bufferView": 15,
      "componentType": 5123,
      "count": 11748,
      "max": [
        2847
      ],
      "min": [
        0
      ],
      "type": "SCALAR"
    },
    {
      "bufferView": 16,
      "componentType": 5126,
      "count": 3216,
      "max": [
        10320,
        3991,
        3272
      ],
      "min": [
        1482,
        606,
        2071
      ],
      "type": "VEC3"
    },
    {
      "bufferView": 17,
      "componentType": 5126,
      "count": 3216,
      "max": [
        1,
        0.9997500777244568,
        1
      ],
      "min": [
        -0.9999499917030334,
        -0.9997500777244568,
        -0.9465044140815735
      ],
      "type": "VEC3"
    },
    {
      "bufferView": 18,
      "componentType": 5123,
      "count": 15687,
      "max": [
        3215
      ],
      "min": [
        0
      ],
      "type": "SCALAR"
    },
    {
      "bufferView": 19,
      "componentType": 5126,
      "count": 1802,
      "max": [
        10385,
        4173,
        2380
      ],
      "min": [
        80,
        424,
        1629
      ],
      "type": "VEC3"
    },
    {
      "bufferView": 20,
      "componentType": 5126,
      "count": 1802,
      "max": [
        0.9968152642250061,
        1,
        0.9837453365325928
      ],
      "min": [
        -0.9730210304260254,
        -1,
        -0.9999499917030334
      ],
      "type": "VEC3"
    },
    {
      "bufferView": 21,
      "componentType": 5123,
      "count": 9138,
      "max": [
        1801
      ],
      "min": [
        0
      ],
      "type": "SCALAR"
    },
    {
      "bufferView": 22,
      "componentType": 5126,
      "count": 610,
      "max": [
        1419,
        4155,
        1953
      ],
      "min": [
        -28,
        442,
        1156
      ],
      "type": "VEC3"
    },
    {
      "bufferView": 23,
      "componentType": 5123,
      "count": 610,
      "max": [
        6
      ],
      "min": [
        0
      ],
      "type": "SCALAR"
    },
    {
      "bufferView": 24,
      "componentType": 5123,
      "count": 2058,
      "max": [
        609
      ],
      "min": [
        0
      ],
      "type": "SCALAR"
    },
    {
      "bufferView": 25,
      "componentType": 5126,
      "count": 1737,
      "max": [
        10372,
        4279,
        3262
      ],
      "min": [
        108,
        320,
        341
      ],
      "type": "VEC3"
    },
    {
      "bufferView": 26,
      "componentType": 5123,
      "count": 10410,
      "max": [
        1736
      ],
      "min": [
        0
      ],
      "type": "SCALAR"
    },
    {
      "bufferView": 27,
      "componentType": 5126,
      "count": 54,
      "max": [
        0.7294895648956299,
        0.9898515343666077,
        0.45065391063690186
      ],
      "min": [
        0.060057077556848526,
        -0.9898515343666077,
        -0.3684922754764557
      ],
      "type": "VEC3"
    },
    {
      "bufferView": 28,
      "componentType": 5126,
      "count": 54,
      "max": [
        10138,
        4152,
        2361
      ],
      "min": [
        8430,
        445,
        2135
      ],
      "type": "VEC3"
    },
    {
      "bufferView": 29,
      "componentType": 5126,
      "count": 54,
      "max": [
        1,
        1
      ],
      "min": [
        0,
        0
      ],
      "type": "VEC2"
    },
    {
      "bufferView": 30,
      "componentType": 5123,
      "count": 192,
      "max": [
        53
      ],
      "min": [
        0
      ],
      "type": "SCALAR"
    }
  ],
  "materials": [
    {
      "pbrMetallicRoughness": {
        "baseColorFactor": [
          0.6784313725490196,
          0.6666666666666666,
          0.3215686274509804,
          1
        ],
        "metallicFactor": 0,
        "roughnessFactor": 0.9
      },
      "extensions": {
        "KHR_materials_unlit": {}
      }
    },
    {
      "pbrMetallicRoughness": {
        "baseColorFactor": [
          0.9098039215686274,
          0.7450980392156863,
          0.027450980392156862,
          1
        ],
        "metallicFactor": 0,
        "roughnessFactor": 0.9
      },
      "extensions": {
        "KHR_materials_unlit": {}
      }
    },
    {
      "pbrMetallicRoughness": {
        "baseColorFactor": [
          0.11372549019607843,
          0.3254901960784314,
          0.8392156862745098,
          1
        ],
        "metallicFactor": 0,
        "roughnessFactor": 0.9
      },
      "extensions": {
        "KHR_materials_unlit": {}
      }
    },
    {
      "pbrMetallicRoughness": {
        "baseColorFactor": [
          0.49019607843137253,
          0.01568627450980392,
          0.050980392156862744,
          1
        ],
        "metallicFactor": 0,
        "roughnessFactor": 0.9
      },
      "extensions": {
        "KHR_materials_unlit": {}
      }
    },
    {
      "pbrMetallicRoughness": {
        "baseColorFactor": [
          0.9137254901960784,
          0.7333333333333333,
          0.3176470588235294,
          1
        ],
        "metallicFactor": 0,
        "roughnessFactor": 0.9
      },
      "extensions": {
        "KHR_materials_unlit": {}
      }
    },
    {
      "pbrMetallicRoughness": {
        "baseColorFactor": [
          0.0196078431372549,
          0.596078431372549,
          0.10588235294117647,
          1
        ],
        "metallicFactor": 0,
        "roughnessFactor": 0.9
      },
      "extensions": {
        "KHR_materials_unlit": {}
      }
    },
    {
      "pbrMetallicRoughness": {
        "baseColorFactor": [
          0.9176470588235294,
          0.9647058823529412,
          0.2823529411764706,
          1
        ],
        "metallicFactor": 0,
        "roughnessFactor": 0.9
      },
      "extensions": {
        "KHR_materials_unlit": {}
      }
    },
    {
      "pbrMetallicRoughness": {
        "baseColorFactor": [
          0.5686274509803921,
          0.6,
          0.8901960784313725,
          1
        ],
        "metallicFactor": 0,
        "roughnessFactor": 0.9
      },
      "extensions": {
        "KHR_materials_unlit": {}
      }
    },
    {
      "pbrMetallicRoughness": {
        "baseColorFactor": [
          0.18823529411764706,
          0.23529411764705882,
          0.8549019607843137,
          1
        ],
        "metallicFactor": 0,
        "roughnessFactor": 0.9
      },
      "extensions": {
        "KHR_materials_unlit": {}
      }
    },
    {
      "pbrMetallicRoughness": {
        "baseColorFactor": [
          0.30196078431372547,
          0.8823529411764706,
          0.4980392156862745,
          1
        ],
        "metallicFactor": 0,
        "roughnessFactor": 0.9
      },
      "extensions": {
        "KHR_materials_unlit": {}
      }
    }
  ],
  "meshes": [
    {
      "primitives": [
        {
          "mode": 4,
          "attributes": {
            "POSITION": 0,
            "NORMAL": 1
          },
          "indices": 2,
          "material": 0
        }
      ]
    },
    {
      "primitives": [
        {
          "mode": 4,
          "attributes": {
            "NORMAL": 3,
            "POSITION": 4
          },
          "indices": 5,
          "material": 1
        }
      ]
    },
    {
      "primitives": [
        {
          "mode": 4,
          "attributes": {
            "POSITION": 6,
            "_TYPE": 7
          },
          "indices": 8,
          "material": 2
        }
      ]
    },
    {
      "primitives": [
        {
          "mode": 4,
          "attributes": {
            "TEXCOORD_0": 9,
            "POSITION": 10,
            "NORMAL": 11
          },
          "indices": 12,
          "material": 3
        }
      ]
    },
    {
      "primitives": [
        {
          "mode": 4,
          "attributes": {
            "_TYPE": 13,
            "POSITION": 14
          },
          "indices": 15,
          "material": 4
        }
      ]
    },
    {
      "primitives": [
        {
          "mode": 4,
          "attributes": {
            "POSITION": 16,
            "NORMAL": 17
          },
          "indices": 18,
          "material": 5
        }
      ]
    },
    {
      "primitives": [
        {
          "mode": 4,
          "attributes": {
            "POSITION": 19,
            "NORMAL": 20
          },
          "indices": 21,
          "material": 6
        }
      ]
    },
    {
      "primitives": [
        {
          "mode": 4,
          "attributes": {
            "POSITION": 22,
            "_TYPE": 23
          },
          "indices": 24,
          "material": 7
        }
      ]
    },
    {
      "primitives": [
        {
          "mode": 4,
          "attributes": {
            "POSITION": 25
          },
          "indices": 26,
          "material": 8
        }
      ]
    },
    {
      "primitives": [
        {
          "mode": 4,
          "attributes": {
            "NORMAL": 27,
            "POSITION": 28,
            "TEXCOORD_0": 29
          },
          "indices": 30,
          "material": 9
        }
      ]
    }
  ],
  "extensions": {
    "KHR_lights_punctual": {
      "lights": [
        {
          "name": "DirectionalLight",
          "color": [
            1,
            1,
            1
          ],
          "intensity": 3,
          "type": "directional"
        }
      ]
    }
  },
  "extensionsUsed": [
    "KHR_materials_unlit",
    "KHR_lights_punctual"
  ]
}